<svg xmlns="http://www.w3.org/2000/svg" width="106.176" height="111.967" viewBox="0 0 106.176 111.967">
  <g id="appels_offres" transform="translate(-8569.45 -8770.693)">
    <path id="Tracé_515" data-name="Tracé 515" d="M8590.952,8785.075v9.036h33.8v-10.542h-9.539s-.669-8.2-8.032-7.866-7.2,7.866-7.2,7.866h-9.036Z" transform="translate(-4 -5)" fill="#fe5002"/>
    <path id="Tracé_516" data-name="Tracé 516" d="M8654.711,8787.92l12.384,7.2s6.861-6.694-2.008-10.878S8654.711,8787.92,8654.711,8787.92Z" transform="translate(6)" fill="#fe5002"/>
    <g id="Groupe_306" data-name="Groupe 306" transform="translate(7457.867 8226.501)">
      <g id="Groupe_316" data-name="Groupe 316" transform="translate(1112.133 548.764)">
        <g id="Groupe_306-2" data-name="Groupe 306" transform="translate(0 12.588)">
          <path id="Tracé_505" data-name="Tracé 505" d="M1177.284,652.342h-54.719a10.445,10.445,0,0,1-10.432-10.432V568.517a10.445,10.445,0,0,1,10.432-10.433h10.427a.878.878,0,0,1,.878.879v2.82a1.516,1.516,0,0,0,1.513,1.518h29.1a1.513,1.513,0,0,0,1.506-1.518v-2.82a.878.878,0,0,1,.878-.879h10.422a10.445,10.445,0,0,1,10.431,10.433v5.293a.865.865,0,0,1-.117.439L1173.89,597.99l2.026,11.047,9.884-4.138.273-.485a.878.878,0,0,1,1.642.431V641.91A10.444,10.444,0,0,1,1177.284,652.342Zm-54.719-92.5a8.686,8.686,0,0,0-8.676,8.676V641.91a8.685,8.685,0,0,0,8.676,8.675h54.719a8.685,8.685,0,0,0,8.676-8.675V606.735l-10.371,4.342a.878.878,0,0,1-1.2-.652l-2.283-12.436a.878.878,0,0,1,.1-.6l13.753-23.816v-5.058a8.686,8.686,0,0,0-8.676-8.676h-9.544v1.942a3.272,3.272,0,0,1-3.262,3.275h-29.1a3.276,3.276,0,0,1-3.269-3.275v-1.942Z" transform="translate(-1112.133 -558.084)" fill="#133854" stroke="#133854" stroke-width="1.1"/>
        </g>
        <g id="Groupe_307" data-name="Groupe 307" transform="translate(19.981)">
          <path id="Tracé_506" data-name="Tracé 506" d="M1159.291,568.326h-29.1a3.276,3.276,0,0,1-3.268-3.275v-5.639a3.27,3.27,0,0,1,3.268-3.263h6.332a8.259,8.259,0,0,1,16.426,0h6.338a3.266,3.266,0,0,1,3.262,3.263v5.639A3.272,3.272,0,0,1,1159.291,568.326ZM1130.2,557.9a1.512,1.512,0,0,0-1.513,1.507v5.639a1.516,1.516,0,0,0,1.513,1.518h29.1a1.513,1.513,0,0,0,1.506-1.518v-5.639a1.508,1.508,0,0,0-1.506-1.507h-7.169a.878.878,0,0,1-.878-.878,6.5,6.5,0,1,0-13.008,0,.878.878,0,0,1-.878.878Z" transform="translate(-1126.927 -548.764)" fill="#133854" stroke="#133854" stroke-width="1.1"/>
        </g>
        <g id="Groupe_308" data-name="Groupe 308" transform="translate(12.597 37.541)">
          <path id="Tracé_507" data-name="Tracé 507" d="M1170.978,578.317h-48.641a.879.879,0,0,1,0-1.757h48.641a.879.879,0,0,1,0,1.757Z" transform="translate(-1121.46 -576.56)" fill="#133854" stroke="#133854" stroke-width="1.1"/>
        </g>
        <g id="Groupe_309" data-name="Groupe 309" transform="translate(59.957 5.695)">
          <path id="Tracé_508" data-name="Tracé 508" d="M1159.686,612.934a.866.866,0,0,1-.419-.107.876.876,0,0,1-.444-.613l-2.283-12.436a.878.878,0,0,1,.1-.6l25.224-43.682a5.063,5.063,0,0,1,6.891-1.849l6.226,3.6a5.053,5.053,0,0,1,1.852,6.891l-25.224,43.681a.876.876,0,0,1-.421.371l-11.166,4.674A.9.9,0,0,1,1159.686,612.934Zm-1.36-13.155,2.026,11.047,9.888-4.14,25.074-43.422a3.3,3.3,0,0,0-1.206-4.495l-6.226-3.6a3.4,3.4,0,0,0-4.493,1.207Z" transform="translate(-1156.526 -552.981)" fill="#133854" stroke="#133854" stroke-width="1.1"/>
        </g>
        <g id="Groupe_310" data-name="Groupe 310" transform="translate(83.027 11.505)">
          <path id="Tracé_509" data-name="Tracé 509" d="M1187.928,566.8a.862.862,0,0,1-.439-.119l-13.443-7.766a.878.878,0,1,1,.879-1.519l13.441,7.766a.878.878,0,0,1-.439,1.638Z" transform="translate(-1173.608 -557.283)" fill="#133854" stroke="#133854" stroke-width="1.1"/>
        </g>
        <g id="Groupe_311" data-name="Groupe 311" transform="translate(59.957 51.456)">
          <path id="Tracé_510" data-name="Tracé 510" d="M1170.852,596.381a.861.861,0,0,1-.438-.119l-13.448-7.762a.877.877,0,1,1,.876-1.519l13.448,7.762a.878.878,0,0,1-.439,1.638Z" transform="translate(-1156.526 -586.863)" fill="#133854" stroke="#133854" stroke-width="1.1"/>
        </g>
        <g id="Groupe_312" data-name="Groupe 312" transform="translate(66.687 15.387)">
          <path id="Tracé_511" data-name="Tracé 511" d="M1162.387,601.863a.857.857,0,0,1-.438-.119.877.877,0,0,1-.323-1.2l23.059-39.95a.878.878,0,0,1,1.521.878l-23.059,39.95A.878.878,0,0,1,1162.387,601.863Z" transform="translate(-1161.509 -560.157)" fill="#133854" stroke="#133854" stroke-width="1.1"/>
        </g>
        <g id="Groupe_313" data-name="Groupe 313" transform="translate(13.599 63.892)">
          <path id="Tracé_512" data-name="Tracé 512" d="M1171.72,597.827h-48.64a.878.878,0,1,1,0-1.756h48.64a.878.878,0,0,1,0,1.756Z" transform="translate(-1122.202 -596.071)" fill="#133854" stroke="#133854" stroke-width="1.1"/>
        </g>
        <g id="Groupe_314" data-name="Groupe 314" transform="translate(13.886 73.598)">
          <path id="Tracé_513" data-name="Tracé 513" d="M1123.292,626.507a.879.879,0,0,1-.62-1.5l9.934-9.934a.879.879,0,0,1,.989-.177l9.72,4.479,7.382-7.08a.912.912,0,0,1,.655-.243l5.47.3,8.842-8.844a.878.878,0,0,1,1.241,1.242l-9.12,9.12a.925.925,0,0,1-.668.257l-5.481-.305-7.538,7.228a.879.879,0,0,1-.975.165l-9.708-4.472-9.5,9.5A.876.876,0,0,1,1123.292,626.507Z" transform="translate(-1122.415 -603.257)" fill="#133854" stroke="#133854" stroke-width="1.1"/>
        </g>
        <g id="Groupe_315" data-name="Groupe 315" transform="translate(52.723 72.786)">
          <path id="Tracé_514" data-name="Tracé 514" d="M1157.179,609.952a.878.878,0,0,1-.878-.879v-4.661h-4.253a.878.878,0,0,1,0-1.756h5.131a.878.878,0,0,1,.878.878v5.539A.878.878,0,0,1,1157.179,609.952Z" transform="translate(-1151.17 -602.656)" fill="#133854" stroke="#133854" stroke-width="1.1"/>
        </g>
      </g>
    </g>
  </g>
</svg>
