<svg xmlns="http://www.w3.org/2000/svg" width="77.882" height="68.6" viewBox="0 0 77.882 68.6">
  <g id="enlevements" transform="translate(-8035.45 -8299.45)">
    <circle id="Ellipse_24" data-name="Ellipse 24" cx="9" cy="9" r="9" transform="translate(8053 8347)" fill="#fe5002"/>
    <circle id="Ellipse_25" data-name="Ellipse 25" cx="9" cy="9" r="9" transform="translate(8087 8347)" fill="#fe5002"/>
    <path id="Tracé_465" data-name="Tracé 465" d="M1526.981,503.969h-5.255l-8.227-12.112h-6.3v-9.123a2.486,2.486,0,0,0-2.484-2.484h-48.71a2.9,2.9,0,0,0-2.9,2.9v55.32h12.39c0,.094-.015.186-.015.281a9,9,0,0,0,18,0c0-.095-.011-.187-.014-.281h16.06c0,.094-.014.186-.014.281a9,9,0,0,0,18,0c0-.095-.012-.187-.015-.281h12.39V506.878A2.912,2.912,0,0,0,1526.981,503.969ZM1512.7,493.357l7.209,10.612H1507.2V493.357Zm-7,24.018h-51.094V488.684H1505.7v28.691Zm-49.694-35.625h48.71a.985.985,0,0,1,.984.984v4.45h-51.094v-4.035A1.4,1.4,0,0,1,1456.009,481.75Zm-1.4,37.125H1505.7v5.719h-51.094Zm19.875,27.375a7.5,7.5,0,1,1,7.5-7.5A7.509,7.509,0,0,1,1474.484,546.25Zm34.032,0a7.5,7.5,0,1,1,7.5-7.5A7.508,7.508,0,0,1,1508.516,546.25Zm19.875-9.281h-11.054a9,9,0,0,0-17.643,0h-16.388a9,9,0,0,0-17.643,0h-11.054V526.094h73.782ZM1507.2,524.594V505.469h19.778a1.411,1.411,0,0,1,1.41,1.409v17.716Z" transform="translate(6582.891 7819.75)" fill="#133854" stroke="#133854" stroke-width="1.1"/>
  </g>
</svg>
