<svg id="Calque_1" data-name="Calque 1" xmlns="http://www.w3.org/2000/svg" viewBox="0 0 32 32"><defs><style>.cls-1{fill:#005483;}.cls-2{fill:#fff;}</style></defs><rect class="cls-1" x="2" y="2" width="28" height="28" rx="1.43"/><path class="cls-2" d="M20.58,20.79q-.79-2.85-1.27-4.95-8.2,1.72-7.37,5.43c.38,1.69,1.78,2.28,4.18,1.78a8.5,8.5,0,0,0,4.46-2.26M28,23.88l-5.64,1.37a4.39,4.39,0,0,1-.75-1.55l-.31.07a11.65,11.65,0,0,1-6.69,3.51,8.32,8.32,0,0,1-5.33-.43,4.86,4.86,0,0,1-2.87-3.52,6.24,6.24,0,0,1,1.89-6q2.63-2.73,10.35-4.49c0-.26-.07-.51-.12-.74-.35-1.54-1-2.46-1.94-2.78a10.25,10.25,0,0,0-4.76.23,30.2,30.2,0,0,0-6.9,2.35l-.36-4a33.56,33.56,0,0,1,9-2.95,12.18,12.18,0,0,1,7.09.21c1.82.75,3,2.47,3.64,5.18.14.6.35,1.69.65,3.29s.51,2.65.63,3.18A28.74,28.74,0,0,0,28,23.88"/></svg>