<svg xmlns="http://www.w3.org/2000/svg" width="64.672" height="80.21" viewBox="0 0 64.672 80.21">
  <g id="gestion_achats" transform="translate(-4233.45 -8293.45)">
    <rect id="Rectangle_69" data-name="Rectangle 69" width="25" height="33" transform="translate(4258 8299)" fill="#fe5002"/>
    <circle id="Ellipse_18" data-name="Ellipse 18" cx="2" cy="2" r="2" transform="translate(4262 8352)" fill="#fe5002"/>
    <g id="Groupe_65" data-name="Groupe 65" transform="translate(3325.729 7977.248)">
      <g id="Groupe_75" data-name="Groupe 75">
        <g id="Groupe_65-2" data-name="Groupe 65">
          <path id="Tracé_289" data-name="Tracé 289" d="M967.736,381.884H912.377a4.112,4.112,0,0,1-4.106-4.108V337.914a4.11,4.11,0,0,1,4.106-4.105h14.785a.65.65,0,0,1,.65.65v22.106h25.731V334.459a.65.65,0,0,1,.65-.65h13.543a4.111,4.111,0,0,1,4.107,4.105v39.862A4.113,4.113,0,0,1,967.736,381.884Zm-55.359-46.775a2.808,2.808,0,0,0-2.8,2.8v39.862a2.809,2.809,0,0,0,2.8,2.807h55.359a2.81,2.81,0,0,0,2.806-2.807V337.914a2.809,2.809,0,0,0-2.806-2.8H954.844v22.107a.65.65,0,0,1-.651.65H927.162a.65.65,0,0,1-.65-.65V335.109Z" fill="#133854" stroke="#133854" stroke-width="1.1"/>
        </g>
        <g id="Groupe_66" data-name="Groupe 66">
          <path id="Tracé_290" data-name="Tracé 290" d="M950.117,393.125a.059.059,0,0,1-.019,0H930.014a.651.651,0,0,1-.629-.815l2.955-11.242a.65.65,0,0,1,.629-.485h14.174a.65.65,0,0,1,.628.485l2.916,11.093a.65.65,0,0,1-.57.964Zm-19.261-1.3h18.4l-2.613-9.94H933.47Z" fill="#133854" stroke="#133854" stroke-width="1.1"/>
        </g>
        <g id="Groupe_67" data-name="Groupe 67">
          <path id="Tracé_291" data-name="Tracé 291" d="M958.981,395.862H921.132a.65.65,0,0,1-.651-.65v-2.737a.65.65,0,0,1,.651-.651h37.849a.65.65,0,0,1,.651.651v2.737A.65.65,0,0,1,958.981,395.862Zm-37.2-1.3h36.549v-1.436H921.782Z" fill="#133854" stroke="#133854" stroke-width="1.1"/>
        </g>
        <g id="Groupe_68" data-name="Groupe 68">
          <path id="Tracé_292" data-name="Tracé 292" d="M967.647,371.166H912.329a.65.65,0,0,1-.65-.65V337.972a.65.65,0,0,1,.65-.651h14.833a.65.65,0,0,1,.65.651v18.593h25.731V337.972a.65.65,0,0,1,.65-.651h13.454a.65.65,0,0,1,.651.651v32.544A.65.65,0,0,1,967.647,371.166Zm-54.668-1.3H967V338.622H954.844v18.594a.65.65,0,0,1-.651.65H927.162a.65.65,0,0,1-.65-.65V338.622H912.979Z" fill="#133854" stroke="#133854" stroke-width="1.1"/>
        </g>
        <g id="Groupe_69" data-name="Groupe 69">
          <path id="Tracé_293" data-name="Tracé 293" d="M940.06,379.582a1.951,1.951,0,1,1,1.951-1.95A1.957,1.957,0,0,1,940.06,379.582Zm0-2.6a.65.65,0,1,0,.65.652A.655.655,0,0,0,940.06,376.98Z" fill="#133854" stroke="#133854" stroke-width="1.1"/>
        </g>
        <g id="Groupe_70" data-name="Groupe 70">
          <path id="Tracé_294" data-name="Tracé 294" d="M957.674,361.435h-33.99a.65.65,0,0,1-.651-.65v-7.2a.65.65,0,0,1,1.3,0v6.546h32.689v-6.546a.65.65,0,0,1,1.3,0v7.2A.649.649,0,0,1,957.674,361.435Z" fill="#133854" stroke="#133854" stroke-width="1.1"/>
        </g>
        <g id="Groupe_71" data-name="Groupe 71">
          <path id="Tracé_295" data-name="Tracé 295" d="M954.193,357.866H927.162a.65.65,0,0,1-.65-.65V326.568a.65.65,0,0,1,.65-.65h27.031a.65.65,0,0,1,.651.65v30.648A.65.65,0,0,1,954.193,357.866Zm-26.381-1.3h25.731V327.219H927.812Z" fill="#133854" stroke="#133854" stroke-width="1.1"/>
        </g>
        <g id="Groupe_72" data-name="Groupe 72">
          <path id="Tracé_296" data-name="Tracé 296" d="M946.941,332.928a.65.65,0,0,1-.65-.651V323.67a5.616,5.616,0,1,0-11.231,0v8.607a.651.651,0,1,1-1.3,0V323.67a6.917,6.917,0,1,1,13.833,0v8.607A.65.65,0,0,1,946.941,332.928Z" fill="#133854" stroke="#133854" stroke-width="1.1"/>
        </g>
        <g id="Groupe_74" data-name="Groupe 74">
          <g id="Groupe_73" data-name="Groupe 73">
            <path id="Tracé_297" data-name="Tracé 297" d="M946.941,336.32a2.346,2.346,0,1,1,2.347-2.346A2.348,2.348,0,0,1,946.941,336.32Zm0-3.392a1.046,1.046,0,1,0,1.046,1.046A1.047,1.047,0,0,0,946.941,332.928Zm-12.532,3.392a2.347,2.347,0,1,1,2.352-2.346A2.349,2.349,0,0,1,934.409,336.32Zm0-3.392a1.046,1.046,0,1,0,1.051,1.046A1.047,1.047,0,0,0,934.409,332.928Z" fill="#133854" stroke="#133854" stroke-width="1.1"/>
          </g>
        </g>
      </g>
    </g>
  </g>
</svg>
