<svg xmlns="http://www.w3.org/2000/svg" width="94.497" height="84.187" viewBox="0 0 94.497 84.187">
  <g id="gestion_lots" transform="translate(-7490.305 -8283.677)">
    <circle id="Ellipse_22" data-name="Ellipse 22" cx="4" cy="4" r="4" transform="translate(7499 8347)" fill="#fe5002"/>
    <path id="Tracé_460" data-name="Tracé 460" d="M7550.875,8313.6l19.052-16.478s-17.121-19.31-38.361-2.7" transform="translate(1 -4)" fill="#fe5002"/>
    <g id="Groupe_248" data-name="Groupe 248" transform="translate(6090.301 7626.075)">
      <g id="Groupe_248-2" data-name="Groupe 248" transform="translate(1413.316 697.763)">
        <path id="Tracé_446" data-name="Tracé 446" d="M1456.739,708.3c-4.21,0-9.509-1.231-13.926-2.424l-.7-.188a.767.767,0,1,1,.39-1.484l.707.189c14.266,3.855,18.271,2.275,19.119.266a3.562,3.562,0,0,0,.156-1.956c-.216-1.379-1.219-2.669-2.983-3.837a.722.722,0,0,1-.094-.072,18.212,18.212,0,0,0-2.882-1.5,34.8,34.8,0,0,0-4.651-1.583c-.946-.251-1.973-.49-3.138-.727-1.538-.315-3.171-.582-4.852-.8-1.053-.137-2.091-.242-3.106-.331-1.931-.154-3.637-.218-5.106-.218a26.325,26.325,0,0,0-4.731.343c-.647.136-1.342.315-2.055.535-5.727,1.8-13.742,6.415-16.375,7.932a.768.768,0,1,1-.766-1.33c2.669-1.537,10.794-6.215,16.684-8.067.765-.235,1.508-.427,2.209-.574a29.646,29.646,0,0,1,5.277-.374c1.438,0,3.119.076,4.99.223,1.041.092,2.1.2,3.175.339,1.716.218,3.387.491,4.963.815,1.2.243,2.25.489,3.229.749a36.329,36.329,0,0,1,4.856,1.653,19.507,19.507,0,0,1,3.221,1.688.619.619,0,0,1,.1.078c2.08,1.4,3.276,3.019,3.556,4.812a5.046,5.046,0,0,1-.26,2.8C1462.8,707.5,1460.118,708.3,1456.739,708.3Z" transform="translate(-1411.364 -692.105)" fill="#133854" stroke="#133854" stroke-width="1.1"/>
      </g>
      <g id="Groupe_249" data-name="Groupe 249" transform="translate(1424.716 700.886)">
        <path id="Tracé_447" data-name="Tracé 447" d="M1453.031,721.94a33.1,33.1,0,0,1-10.923-2.075c-5.229-1.68-10.169-3.273-20.042.58a.767.767,0,1,1-.557-1.43c10.374-4.052,15.568-2.379,21.068-.61,3.546,1.141,7.208,2.323,12.584,1.92,6.379-.468,25.905-10.906,31.957-17.923,1.084-1.257,1.652-2.346,1.6-3.065a2.746,2.746,0,0,0-.994-2.043c-1.548-1.26-4.458-1.038-5.635-.884a1.038,1.038,0,0,1-.119.012,44.044,44.044,0,0,0-10.151,3.081c-1.761.736-3.433,1.524-4.971,2.347-1.1.583-2.1,1.164-2.964,1.728a24.679,24.679,0,0,0-2.1,1.5.768.768,0,0,1-.961-1.2,26.455,26.455,0,0,1,2.232-1.593c.9-.585,1.938-1.19,3.077-1.794,1.578-.844,3.3-1.654,5.1-2.406a45.535,45.535,0,0,1,10.531-3.186.789.789,0,0,1,.233-.021c1.609-.214,4.767-.353,6.7,1.224a4.258,4.258,0,0,1,1.556,3.119c.087,1.176-.556,2.544-1.967,4.18-6.369,7.387-26.235,17.955-33,18.452C1454.494,721.914,1453.746,721.94,1453.031,721.94Z" transform="translate(-1421.021 -694.75)" fill="#133854" stroke="#133854" stroke-width="1.1"/>
      </g>
      <g id="Groupe_250" data-name="Groupe 250" transform="translate(1400.556 706.676)">
        <path id="Tracé_448" data-name="Tracé 448" d="M1404.066,734.217a.769.769,0,0,1-.764-.7l-2.743-29.085a.768.768,0,0,1,.537-.805l12.761-3.942a.767.767,0,0,1,.878.329l11.4,18.42a.766.766,0,0,1,.107.3l.612,4.714a.766.766,0,0,1-.446.8l-22.028,9.892A.774.774,0,0,1,1404.066,734.217Zm-1.921-29.3,2.584,27.4,20.53-9.219-.516-3.984-11-17.776Z" transform="translate(-1400.556 -699.655)" fill="#133854" stroke="#133854" stroke-width="1.1"/>
      </g>
      <g id="Groupe_251" data-name="Groupe 251" transform="translate(1412.679 723.582)">
        <path id="Tracé_449" data-name="Tracé 449" d="M1413.813,719.956a2.989,2.989,0,0,1-.333-5.96h0a2.995,2.995,0,0,1,2.678,4.833,3.029,3.029,0,0,1-2.346,1.126Zm-.161-4.435a1.455,1.455,0,1,0,.325,2.891,1.459,1.459,0,0,0,.749-2.584,1.478,1.478,0,0,0-1.073-.307Z" transform="translate(-1410.825 -713.975)" fill="#133854" stroke="#133854" stroke-width="1.1"/>
      </g>
      <g id="Groupe_252" data-name="Groupe 252" transform="translate(1428.544 660.771)">
        <path id="Tracé_450" data-name="Tracé 450" d="M1481.39,702.575a.768.768,0,0,1-.767-.769.8.8,0,0,1,.082-.344,28.489,28.489,0,1,0-54.906-10.677,26.823,26.823,0,0,0,1.266,8.416.373.373,0,0,1,.017.061.767.767,0,0,1-1.414.59,1.134,1.134,0,0,1-.06-.17h0a28.374,28.374,0,0,1-1.342-8.9,30.021,30.021,0,1,1,57.852,11.285h0a.855.855,0,0,1-.038.08A.768.768,0,0,1,1481.39,702.575Z" transform="translate(-1424.263 -660.771)" fill="#133854" stroke="#133854" stroke-width="1.1"/>
      </g>
      <g id="Groupe_253" data-name="Groupe 253" transform="translate(1440.172 666.679)">
        <path id="Tracé_451" data-name="Tracé 451" d="M1454.694,687.9a.77.77,0,0,1-.554-.236l-19.815-20.586a.768.768,0,0,1,1.106-1.065l19.816,20.586a.769.769,0,0,1-.554,1.3Z" transform="translate(-1434.112 -665.775)" fill="#133854" stroke="#133854" stroke-width="1.1"/>
      </g>
      <g id="Groupe_254" data-name="Groupe 254" transform="translate(1447.881 670.135)">
        <path id="Tracé_452" data-name="Tracé 452" d="M1441.41,698.822a.769.769,0,0,1-.517-1.335l31.371-28.584a.767.767,0,1,1,1.033,1.135l-31.371,28.584A.765.765,0,0,1,1441.41,698.822Z" transform="translate(-1440.643 -668.703)" fill="#133854" stroke="#133854" stroke-width="1.1"/>
      </g>
      <g id="Groupe_255" data-name="Groupe 255" transform="translate(1433.457 672.294)">
        <path id="Tracé_453" data-name="Tracé 453" d="M1429.191,673.565a.768.768,0,0,1-.093-1.53l12.117-1.5a.768.768,0,0,1,.189,1.524l-12.117,1.5A.872.872,0,0,1,1429.191,673.565Z" transform="translate(-1428.425 -670.531)" fill="#133854" stroke="#133854" stroke-width="1.1"/>
      </g>
      <g id="Groupe_256" data-name="Groupe 256" transform="translate(1430.899 676.21)">
        <path id="Tracé_454" data-name="Tracé 454" d="M1427.024,677.746a.768.768,0,0,1-.1-1.529l17.708-2.361a.768.768,0,0,1,.2,1.523l-17.709,2.361A1,1,0,0,1,1427.024,677.746Z" transform="translate(-1426.258 -673.849)" fill="#133854" stroke="#133854" stroke-width="1.1"/>
      </g>
      <g id="Groupe_257" data-name="Groupe 257" transform="translate(1429.719 679.752)">
        <path id="Tracé_455" data-name="Tracé 455" d="M1426.024,681.927a.767.767,0,0,1-.118-1.525l22.431-3.542a.767.767,0,0,1,.24,1.516l-22.431,3.542A.862.862,0,0,1,1426.024,681.927Z" transform="translate(-1425.259 -676.849)" fill="#133854" stroke="#133854" stroke-width="1.1"/>
      </g>
      <g id="Groupe_258" data-name="Groupe 258" transform="translate(1428.59 683.296)">
        <path id="Tracé_456" data-name="Tracé 456" d="M1425.069,686.454a.768.768,0,0,1-.137-1.523l27.573-5.069a.768.768,0,0,1,.277,1.511l-27.575,5.069A.924.924,0,0,1,1425.069,686.454Z" transform="translate(-1424.302 -679.851)" fill="#133854" stroke="#133854" stroke-width="1.1"/>
      </g>
      <g id="Groupe_259" data-name="Groupe 259" transform="translate(1428.743 687.265)">
        <path id="Tracé_457" data-name="Tracé 457" d="M1425.2,691.052a.768.768,0,0,1-.155-1.521l30.459-6.3a.767.767,0,1,1,.312,1.5l-30.459,6.3A.794.794,0,0,1,1425.2,691.052Z" transform="translate(-1424.432 -683.213)" fill="#133854" stroke="#133854" stroke-width="1.1"/>
      </g>
      <g id="Groupe_260" data-name="Groupe 260" transform="translate(1429.719 693.57)">
        <path id="Tracé_458" data-name="Tracé 458" d="M1426.024,693.422a.768.768,0,0,1-.11-1.528l22.984-3.334a.768.768,0,1,1,.222,1.519l-22.984,3.334A.906.906,0,0,1,1426.024,693.422Z" transform="translate(-1425.258 -688.553)" fill="#133854" stroke="#133854" stroke-width="1.1"/>
      </g>
    </g>
  </g>
</svg>
