<svg xmlns="http://www.w3.org/2000/svg" width="107" height="58.516" viewBox="0 0 107 58.516">
  <g id="gestion_ventes" transform="translate(-4234 -8315)">
    <rect id="Rectangle_70" data-name="Rectangle 70" width="17" height="41" transform="translate(4324 8315)" fill="#fe5002"/>
    <rect id="Rectangle_71" data-name="Rectangle 71" width="17" height="41" transform="translate(4234 8326)" fill="#fe5002"/>
    <g id="Groupe_76" data-name="Groupe 76" transform="translate(3257.213 7909.566)">
      <g id="Groupe_76-2" data-name="Groupe 76">
        <path id="Tracé_298" data-name="Tracé 298" d="M996.6,450.934H982.474a1.689,1.689,0,0,1-1.687-1.687V413.12a1.688,1.688,0,0,1,1.687-1.686H996.6a1.688,1.688,0,0,1,1.686,1.686v36.127A1.689,1.689,0,0,1,996.6,450.934Zm-14.127-38a.187.187,0,0,0-.187.186v36.127a.187.187,0,0,0,.187.187H996.6a.187.187,0,0,0,.186-.187V413.12a.187.187,0,0,0-.186-.186Z" fill="#133854" stroke="#133854" stroke-width="1.1"/>
      </g>
      <g id="Groupe_77" data-name="Groupe 77">
        <path id="Tracé_299" data-name="Tracé 299" d="M1005.787,446.434h-8.5v-31.5h8.5Zm-7-1.5h5.5v-28.5h-5.5Z" fill="#133854" stroke="#133854" stroke-width="1.1"/>
      </g>
      <g id="Groupe_78" data-name="Groupe 78">
        <path id="Tracé_300" data-name="Tracé 300" d="M1001.037,443.367a1.684,1.684,0,1,1,1.684-1.683A1.685,1.685,0,0,1,1001.037,443.367Zm0-2.449a.766.766,0,1,0,.765.766A.766.766,0,0,0,1001.037,440.918Z" fill="#133854" stroke="#133854" stroke-width="1.1"/>
      </g>
      <g id="Groupe_79" data-name="Groupe 79">
        <path id="Tracé_301" data-name="Tracé 301" d="M1061.037,443.367a1.684,1.684,0,1,1,1.684-1.683A1.685,1.685,0,0,1,1061.037,443.367Zm0-2.449a.766.766,0,1,0,.765.766A.766.766,0,0,0,1061.037,440.918Z" fill="#133854" stroke="#133854" stroke-width="1.1"/>
      </g>
      <g id="Groupe_80" data-name="Groupe 80">
        <path id="Tracé_302" data-name="Tracé 302" d="M1079.1,450.934h-14.127a1.689,1.689,0,0,1-1.687-1.687V413.12a1.688,1.688,0,0,1,1.687-1.686H1079.1a1.688,1.688,0,0,1,1.686,1.686v36.127A1.689,1.689,0,0,1,1079.1,450.934Zm-14.127-38a.187.187,0,0,0-.187.186v36.127a.187.187,0,0,0,.187.187H1079.1a.187.187,0,0,0,.186-.187V413.12a.187.187,0,0,0-.186-.186Z" fill="#133854" stroke="#133854" stroke-width="1.1"/>
      </g>
      <g id="Groupe_81" data-name="Groupe 81">
        <path id="Tracé_303" data-name="Tracé 303" d="M1064.787,446.434h-9v-31.5h9Zm-7.5-1.5h6v-28.5h-6Z" fill="#133854" stroke="#133854" stroke-width="1.1"/>
      </g>
      <g id="Groupe_82" data-name="Groupe 82">
        <path id="Tracé_304" data-name="Tracé 304" d="M1038.353,463.4c-2.007,0-4.477-1.975-5.676-3.054-.656.932-1.663,2.088-2.64,2.088-.927,0-3.558-.356-7.95-3.651-3.983-2.986-17-14.84-17.555-15.343l-.245-.223v-24.27l19.914.479c1-1.112,4.9-4.9,10.459-3.983,5.94.991,21.856,3.973,22.016,4l.611.116v23.166l-4.917,4.7c.34,1.483,1.1,5.875-1.447,7.4l-.169.074a11.414,11.414,0,0,1-2.5.469,4.61,4.61,0,0,1,.695,2.212,2.9,2.9,0,0,1-.883,2.132c-1.1,1.1-2.791,1.34-4.767.682a10.776,10.776,0,0,1-2.172-1.028,3.858,3.858,0,0,1-1.061,3.346A2.331,2.331,0,0,1,1038.353,463.4Zm-5.964-5.424.678.677c1.8,1.8,4.939,4,5.94,3,1.547-1.548-.077-4.029-.094-4.053l1.154-.947c1.867,1.868,5.409,3.53,6.94,2a1.382,1.382,0,0,0,.443-1.049,4.975,4.975,0,0,0-1.481-2.77,1.386,1.386,0,0,1-.165-.168l1.091-1.026.106.1a5.95,5.95,0,0,0,3.223-.25c1.551-1.056.934-4.848.589-6.113l-.117-.431,5.091-4.863v-21.28c-2.99-.56-16.114-3.007-21.373-3.883-5.489-.918-9.255,3.682-9.292,3.729l-.232.288-.37-.007-18.733-.45v22.07c1.847,1.677,13.569,12.306,17.2,15.03,4.145,3.108,6.444,3.35,7.05,3.35a6.133,6.133,0,0,0,1.858-2.136Z" fill="#133854" stroke="#133854" stroke-width="1.1"/>
      </g>
      <g id="Groupe_83" data-name="Groupe 83">
        <path id="Tracé_305" data-name="Tracé 305" d="M1051.007,447.714c-.13-.13-13.048-13.051-16.255-16.522-1.786-1.933-3.017-2.738-4.272-2.7s-2.694,1.078-4.357,3.157c-2.655,3.32-5.111,3.438-6.338,3.211a5.563,5.563,0,0,1-4.09-3.949c-1.227-3.814,6.774-10.106,8.39-11.329l.9,1.2c-3.413,2.584-8.567,7.494-7.866,9.673a4.081,4.081,0,0,0,2.934,2.934c1.539.284,3.287-.663,4.894-2.673,1.981-2.475,3.721-3.656,5.477-3.719,2.088-.091,3.934,1.565,5.426,3.179,3.187,3.449,16.084,16.348,16.213,16.478Z" fill="#133854" stroke="#133854" stroke-width="1.1"/>
      </g>
      <g id="Groupe_84" data-name="Groupe 84">
        <path id="Tracé_306" data-name="Tracé 306" d="M1046.378,454.934a.746.746,0,0,1-.534-.224l-10.341-10.5a.75.75,0,1,1,1.068-1.053l10.341,10.5a.75.75,0,0,1-.534,1.277Z" fill="#133854" stroke="#133854" stroke-width="1.1"/>
      </g>
      <g id="Groupe_85" data-name="Groupe 85">
        <path id="Tracé_307" data-name="Tracé 307" d="M1039.537,457.934a.747.747,0,0,1-.526-.216l-8.383-8.25a.75.75,0,1,1,1.053-1.069l8.382,8.25a.75.75,0,0,1-.526,1.285Z" fill="#133854" stroke="#133854" stroke-width="1.1"/>
      </g>
      <g id="Groupe_86" data-name="Groupe 86">
        <path id="Tracé_308" data-name="Tracé 308" d="M1032.537,459.934a.751.751,0,0,1-.494-.186l-8-7a.75.75,0,0,1,.988-1.129l8,7a.75.75,0,0,1-.494,1.315Z" fill="#133854" stroke="#133854" stroke-width="1.1"/>
      </g>
    </g>
  </g>
</svg>
