<svg xmlns="http://www.w3.org/2000/svg" width="94.391" height="80.136" viewBox="0 0 94.391 80.136">
  <g id="gestion_prets" transform="translate(-8035.109 -8802.897)">
    <circle id="Ellipse_26" data-name="Ellipse 26" cx="10" cy="10" r="10" transform="translate(8056 8823)" fill="#fe5002"/>
    <rect id="Rectangle_81" data-name="Rectangle 81" width="16" height="9" transform="translate(8100 8825)" fill="#fe5002"/>
    <g id="Groupe_266" data-name="Groupe 266" transform="translate(6495.589 8327.446)">
      <g id="Groupe_291" data-name="Groupe 291" transform="translate(1540.02 475.951)">
        <g id="Groupe_266-2" data-name="Groupe 266">
          <path id="Tracé_466" data-name="Tracé 466" d="M1632.644,543.446h-91.856a.768.768,0,0,1-.767-.769V476.718a.767.767,0,0,1,.767-.767h91.856a.768.768,0,0,1,.768.767v65.959A.768.768,0,0,1,1632.644,543.446Zm-91.089-1.536h90.322V477.487h-90.322Z" transform="translate(-1540.02 -475.951)" fill="#133854" stroke="#133854" stroke-width="1"/>
        </g>
        <g id="Groupe_267" data-name="Groupe 267" transform="translate(5.678 6.324)">
          <path id="Tracé_467" data-name="Tracé 467" d="M1626.095,536.153h-80.5a.767.767,0,0,1-.767-.767v-53.31a.768.768,0,0,1,.767-.769h80.5a.767.767,0,0,1,.767.769v53.31A.767.767,0,0,1,1626.095,536.153Zm-79.73-1.535h78.963V482.844h-78.963Z" transform="translate(-1544.83 -481.308)" fill="#133854" stroke="#133854" stroke-width="1"/>
        </g>
        <g id="Groupe_268" data-name="Groupe 268" transform="translate(24.66 24.656)">
          <path id="Tracé_468" data-name="Tracé 468" d="M1570,515.017a9.091,9.091,0,1,1,9.1-9.09A9.1,9.1,0,0,1,1570,515.017Zm0-16.646a7.555,7.555,0,1,0,7.561,7.555A7.564,7.564,0,0,0,1570,498.372Z" transform="translate(-1560.909 -496.836)" fill="#133854" stroke="#133854" stroke-width="1"/>
        </g>
        <g id="Groupe_269" data-name="Groupe 269" transform="translate(32.984 14.2)">
          <path id="Tracé_469" data-name="Tracé 469" d="M1568.727,499.971a.768.768,0,0,1-.767-.768V488.747a.767.767,0,1,1,1.535,0V499.2A.768.768,0,0,1,1568.727,499.971Z" transform="translate(-1567.96 -487.979)" fill="#133854" stroke="#133854" stroke-width="1"/>
        </g>
        <g id="Groupe_270" data-name="Groupe 270" transform="translate(41.307 32.979)">
          <path id="Tracé_470" data-name="Tracé 470" d="M1586.228,505.422h-10.451a.767.767,0,0,1,0-1.535h10.451a.767.767,0,0,1,0,1.535Z" transform="translate(-1575.01 -503.887)" fill="#133854" stroke="#133854" stroke-width="1"/>
        </g>
        <g id="Groupe_271" data-name="Groupe 271" transform="translate(32.984 41.301)">
          <path id="Tracé_471" data-name="Tracé 471" d="M1568.727,522.918a.768.768,0,0,1-.767-.769V511.7a.767.767,0,1,1,1.535,0V522.15A.768.768,0,0,1,1568.727,522.918Z" transform="translate(-1567.96 -510.936)" fill="#133854" stroke="#133854" stroke-width="1"/>
        </g>
        <g id="Groupe_272" data-name="Groupe 272" transform="translate(14.211 32.979)">
          <path id="Tracé_472" data-name="Tracé 472" d="M1563.274,505.422h-10.449a.767.767,0,0,1,0-1.535h10.449a.767.767,0,0,1,0,1.535Z" transform="translate(-1552.058 -503.887)" fill="#133854" stroke="#133854" stroke-width="1"/>
        </g>
        <g id="Groupe_273" data-name="Groupe 273" transform="translate(38.871 21.987)">
          <path id="Tracé_473" data-name="Tracé 473" d="M1573.713,501.216a.767.767,0,0,1-.542-1.31l5.106-5.106a.768.768,0,0,1,1.085,1.086l-5.106,5.106A.764.764,0,0,1,1573.713,501.216Z" transform="translate(-1572.947 -494.575)" fill="#133854" stroke="#133854" stroke-width="1"/>
        </g>
        <g id="Groupe_274" data-name="Groupe 274" transform="translate(38.871 38.865)">
          <path id="Tracé_474" data-name="Tracé 474" d="M1578.82,515.516a.765.765,0,0,1-.543-.225l-5.106-5.107a.767.767,0,0,1,1.085-1.086l5.106,5.107a.768.768,0,0,1-.542,1.312Z" transform="translate(-1572.947 -508.872)" fill="#133854" stroke="#133854" stroke-width="1"/>
        </g>
        <g id="Groupe_275" data-name="Groupe 275" transform="translate(21.99 38.865)">
          <path id="Tracé_475" data-name="Tracé 475" d="M1559.415,515.516a.768.768,0,0,1-.543-1.312l5.1-5.107a.768.768,0,0,1,1.086,1.086l-5.1,5.107A.768.768,0,0,1,1559.415,515.516Z" transform="translate(-1558.647 -508.872)" fill="#133854" stroke="#133854" stroke-width="1"/>
        </g>
        <g id="Groupe_276" data-name="Groupe 276" transform="translate(21.99 21.986)">
          <path id="Tracé_476" data-name="Tracé 476" d="M1564.526,501.216a.766.766,0,0,1-.543-.224l-5.11-5.106a.768.768,0,0,1,1.085-1.086l5.111,5.106a.767.767,0,0,1-.542,1.31Z" transform="translate(-1558.647 -494.575)" fill="#133854" stroke="#133854" stroke-width="1"/>
        </g>
        <g id="Groupe_277" data-name="Groupe 277" transform="translate(29.198 29.192)">
          <path id="Tracé_477" data-name="Tracé 477" d="M1569.306,509.787a4.554,4.554,0,1,1,4.553-4.553A4.558,4.558,0,0,1,1569.306,509.787Zm0-7.573a3.019,3.019,0,1,0,3.019,3.02A3.023,3.023,0,0,0,1569.306,502.214Z" transform="translate(-1564.753 -500.679)" fill="#133854" stroke="#133854" stroke-width="1"/>
        </g>
        <g id="Groupe_278" data-name="Groupe 278" transform="translate(60.726 31.913)">
          <path id="Tracé_478" data-name="Tracé 478" d="M1606.827,519.522h-14.6a.767.767,0,0,1-.767-.767v-15a.768.768,0,0,1,.767-.769h14.6a.767.767,0,0,1,.767.769v15A.767.767,0,0,1,1606.827,519.522Zm-13.834-1.536h13.066V504.52h-13.066Z" transform="translate(-1591.459 -502.984)" fill="#133854" stroke="#133854" stroke-width="1"/>
        </g>
        <g id="Groupe_279" data-name="Groupe 279" transform="translate(60.726 25.356)">
          <path id="Tracé_479" data-name="Tracé 479" d="M1606.827,505.523h-14.6a.767.767,0,0,1-.767-.767V498.2a.767.767,0,0,1,.767-.767h14.6a.767.767,0,0,1,.767.767v6.559A.767.767,0,0,1,1606.827,505.523Zm-13.834-1.536h13.066v-5.023h-13.066Z" transform="translate(-1591.459 -497.429)" fill="#133854" stroke="#133854" stroke-width="1"/>
        </g>
        <g id="Groupe_280" data-name="Groupe 280" transform="translate(63.698 35.76)">
          <path id="Tracé_480" data-name="Tracé 480" d="M1595.695,507.778h-.95a.768.768,0,0,1,0-1.536h.95a.768.768,0,0,1,0,1.536Z" transform="translate(-1593.977 -506.242)" fill="#133854" stroke="#133854" stroke-width="1"/>
        </g>
        <g id="Groupe_281" data-name="Groupe 281" transform="translate(67.551 35.76)">
          <path id="Tracé_481" data-name="Tracé 481" d="M1598.958,507.778h-.949a.768.768,0,0,1,0-1.536h.949a.768.768,0,0,1,0,1.536Z" transform="translate(-1597.241 -506.242)" fill="#133854" stroke="#133854" stroke-width="1"/>
        </g>
        <g id="Groupe_282" data-name="Groupe 282" transform="translate(71.404 35.76)">
          <path id="Tracé_482" data-name="Tracé 482" d="M1602.219,507.778h-.948a.768.768,0,0,1,0-1.536h.948a.768.768,0,0,1,0,1.536Z" transform="translate(-1600.504 -506.242)" fill="#133854" stroke="#133854" stroke-width="1"/>
        </g>
        <g id="Groupe_283" data-name="Groupe 283" transform="translate(63.698 39.416)">
          <path id="Tracé_483" data-name="Tracé 483" d="M1595.695,510.874h-.95a.767.767,0,0,1,0-1.535h.95a.767.767,0,1,1,0,1.535Z" transform="translate(-1593.977 -509.339)" fill="#133854" stroke="#133854" stroke-width="1"/>
        </g>
        <g id="Groupe_284" data-name="Groupe 284" transform="translate(67.551 39.416)">
          <path id="Tracé_484" data-name="Tracé 484" d="M1598.958,510.874h-.949a.767.767,0,0,1,0-1.535h.949a.767.767,0,0,1,0,1.535Z" transform="translate(-1597.241 -509.339)" fill="#133854" stroke="#133854" stroke-width="1"/>
        </g>
        <g id="Groupe_285" data-name="Groupe 285" transform="translate(71.404 39.416)">
          <path id="Tracé_485" data-name="Tracé 485" d="M1602.219,510.874h-.948a.767.767,0,1,1,0-1.535h.948a.767.767,0,1,1,0,1.535Z" transform="translate(-1600.504 -509.339)" fill="#133854" stroke="#133854" stroke-width="1"/>
        </g>
        <g id="Groupe_286" data-name="Groupe 286" transform="translate(63.698 43.059)">
          <path id="Tracé_486" data-name="Tracé 486" d="M1595.695,513.96h-.95a.767.767,0,0,1,0-1.535h.95a.767.767,0,1,1,0,1.535Z" transform="translate(-1593.977 -512.425)" fill="#133854" stroke="#133854" stroke-width="1"/>
        </g>
        <g id="Groupe_287" data-name="Groupe 287" transform="translate(67.551 43.059)">
          <path id="Tracé_487" data-name="Tracé 487" d="M1598.958,513.96h-.949a.767.767,0,0,1,0-1.535h.949a.767.767,0,0,1,0,1.535Z" transform="translate(-1597.241 -512.425)" fill="#133854" stroke="#133854" stroke-width="1"/>
        </g>
        <g id="Groupe_288" data-name="Groupe 288" transform="translate(71.404 43.059)">
          <path id="Tracé_488" data-name="Tracé 488" d="M1602.219,513.96h-.948a.767.767,0,1,1,0-1.535h.948a.767.767,0,1,1,0,1.535Z" transform="translate(-1600.504 -512.425)" fill="#133854" stroke="#133854" stroke-width="1"/>
        </g>
        <g id="Groupe_289" data-name="Groupe 289" transform="translate(2.268 65.959)">
          <path id="Tracé_489" data-name="Tracé 489" d="M1551.625,545h-8.917a.767.767,0,0,1-.767-.767V532.59a.767.767,0,0,1,.767-.767h8.917a.767.767,0,0,1,.767.767v11.642A.767.767,0,0,1,1551.625,545Zm-8.151-1.536h7.383V533.359h-7.383Z" transform="translate(-1541.941 -531.823)" fill="#133854" stroke="#133854" stroke-width="1"/>
        </g>
        <g id="Groupe_290" data-name="Groupe 290" transform="translate(80.671 65.959)">
          <path id="Tracé_490" data-name="Tracé 490" d="M1618.039,545h-8.918a.767.767,0,0,1-.768-.767V532.59a.768.768,0,0,1,.768-.767h8.918a.767.767,0,0,1,.767.767v11.642A.767.767,0,0,1,1618.039,545Zm-8.15-1.536h7.383V533.359h-7.383Z" transform="translate(-1608.354 -531.823)" fill="#133854" stroke="#133854" stroke-width="1"/>
        </g>
      </g>
    </g>
  </g>
</svg>
