<svg xmlns="http://www.w3.org/2000/svg" width="92.6" height="83.6" viewBox="0 0 92.6 83.6">
  <g id="gestion_caisses" transform="translate(-8574.45 -8284.45)">
    <rect id="Rectangle_82" data-name="Rectangle 82" width="68" height="11" transform="translate(8587 8310)" fill="#fe5002"/>
    <rect id="Rectangle_83" data-name="Rectangle 83" width="59" height="8" transform="translate(8601 8360)" fill="#fe5002"/>
    <g id="Groupe_292" data-name="Groupe 292" transform="translate(6850.75 7829.75)">
      <g id="Groupe_292-2" data-name="Groupe 292">
        <path id="Tracé_491" data-name="Tracé 491" d="M1809.75,526.75h-79.5v-51.5h79.5Zm-78-1.5h76.5v-48.5h-76.5Z" fill="#133854" stroke="#133854" stroke-width="1.1"/>
      </g>
      <g id="Groupe_293" data-name="Groupe 293">
        <path id="Tracé_492" data-name="Tracé 492" d="M1815.75,537.75h-91.5v-12.5h91.5Zm-90-1.5h88.5v-9.5h-88.5Z" fill="#133854" stroke="#133854" stroke-width="1.1"/>
      </g>
      <g id="Groupe_294" data-name="Groupe 294">
        <path id="Tracé_493" data-name="Tracé 493" d="M1801.75,496.75h-62.5v-13.5h62.5Zm-61-1.5h59.5v-10.5h-59.5Z" fill="#133854" stroke="#133854" stroke-width="1.1"/>
      </g>
      <g id="Groupe_295" data-name="Groupe 295">
        <path id="Tracé_494" data-name="Tracé 494" d="M1753.574,504.719H1740a.75.75,0,0,1,0-1.5h13.574a.75.75,0,0,1,0,1.5Z" fill="#133854" stroke="#133854" stroke-width="1.1"/>
      </g>
      <g id="Groupe_296" data-name="Groupe 296">
        <path id="Tracé_495" data-name="Tracé 495" d="M1776.574,504.719H1763a.75.75,0,0,1,0-1.5h13.574a.75.75,0,0,1,0,1.5Z" fill="#133854" stroke="#133854" stroke-width="1.1"/>
      </g>
      <g id="Groupe_297" data-name="Groupe 297">
        <path id="Tracé_496" data-name="Tracé 496" d="M1800.574,504.719H1787a.75.75,0,0,1,0-1.5h13.574a.75.75,0,0,1,0,1.5Z" fill="#133854" stroke="#133854" stroke-width="1.1"/>
      </g>
      <g id="Groupe_298" data-name="Groupe 298">
        <path id="Tracé_497" data-name="Tracé 497" d="M1753.574,510.719H1740a.75.75,0,0,1,0-1.5h13.574a.75.75,0,0,1,0,1.5Z" fill="#133854" stroke="#133854" stroke-width="1.1"/>
      </g>
      <g id="Groupe_299" data-name="Groupe 299">
        <path id="Tracé_498" data-name="Tracé 498" d="M1776.574,510.719H1763a.75.75,0,0,1,0-1.5h13.574a.75.75,0,0,1,0,1.5Z" fill="#133854" stroke="#133854" stroke-width="1.1"/>
      </g>
      <g id="Groupe_300" data-name="Groupe 300">
        <path id="Tracé_499" data-name="Tracé 499" d="M1800.574,510.719H1787a.75.75,0,0,1,0-1.5h13.574a.75.75,0,0,1,0,1.5Z" fill="#133854" stroke="#133854" stroke-width="1.1"/>
      </g>
      <g id="Groupe_301" data-name="Groupe 301">
        <path id="Tracé_500" data-name="Tracé 500" d="M1794.75,532.75h-46.5v-7.5h46.5Zm-45-1.5h43.5v-4.5h-43.5Z" fill="#133854" stroke="#133854" stroke-width="1.1"/>
      </g>
      <g id="Groupe_302" data-name="Groupe 302">
        <path id="Tracé_501" data-name="Tracé 501" d="M1745.75,476.75h-6.5v-9.5h6.5Zm-5-1.5h3.5v-6.5h-3.5Z" fill="#133854" stroke="#133854" stroke-width="1.1"/>
      </g>
      <g id="Groupe_303" data-name="Groupe 303">
        <path id="Tracé_502" data-name="Tracé 502" d="M1753.75,468.75h-22.5v-13.5h22.5Zm-21-1.5h19.5v-10.5h-19.5Z" fill="#133854" stroke="#133854" stroke-width="1.1"/>
      </g>
      <g id="Groupe_304" data-name="Groupe 304">
        <path id="Tracé_503" data-name="Tracé 503" d="M1815,532.573h-10.553a.75.75,0,0,1,0-1.5H1815a.75.75,0,0,1,0,1.5Z" fill="#133854" stroke="#133854" stroke-width="1.1"/>
      </g>
      <g id="Groupe_305" data-name="Groupe 305">
        <path id="Tracé_504" data-name="Tracé 504" d="M1736,532.573h-10.553a.75.75,0,0,1,0-1.5H1736a.75.75,0,0,1,0,1.5Z" fill="#133854" stroke="#133854" stroke-width="1.1"/>
      </g>
    </g>
  </g>
</svg>
