<svg xmlns="http://www.w3.org/2000/svg" width="177.792" height="77.966" viewBox="0 0 177.792 77.966">
  <g id="gestion_stocks" transform="translate(-5335.918 -8299.646)">
    <path id="Tracé_312" data-name="Tracé 312" d="M5409.3,8308.032l15.562-5.387,15.562,5.387-16.161,5.237Z" transform="translate(-2 -3)" fill="#fe5002"/>
    <path id="Tracé_313" data-name="Tracé 313" d="M5474.845,8340.205l7.931,14.365,26.935-10.924-6.435-14.215Z" transform="translate(4 2)" fill="#fe5002"/>
    <path id="Tracé_314" data-name="Tracé 314" d="M5346.921,8330.163l30.93,11.282-8.754,16.341-29.179-12.45Z" transform="translate(-4 1)" fill="#fe5002"/>
    <g id="Groupe_87" data-name="Groupe 87" transform="translate(4515.299 7807.147)">
      <path id="Tracé_309" data-name="Tracé 309" d="M898.367,526.917a.65.65,0,0,0,.651-.65V512.723a.651.651,0,1,0-1.3,0v13.544A.65.65,0,0,0,898.367,526.917Z" fill="#133854" stroke="#133854" stroke-width="1.1"/>
      <path id="Tracé_310" data-name="Tracé 310" d="M920.124,521.783a.65.65,0,0,0,.65-.65V507.589a.65.65,0,1,0-1.3,0v13.544A.65.65,0,0,0,920.124,521.783Z" fill="#133854" stroke="#133854" stroke-width="1.1"/>
      <path id="Tracé_311" data-name="Tracé 311" d="M994.969,536.3,988.4,522.109a.641.641,0,0,0-.367-.681L975.741,515.9l-15-6a.644.644,0,0,0-.471,0l-29,11a.617.617,0,0,0-.141.088l-3.821-1.374V501.518a.641.641,0,0,0-.243-1.091l-17.559-5.545a.668.668,0,0,0-.391,0l-17.573,5.545a.653.653,0,0,0-.455.622.644.644,0,0,0,.224.479V519.17l-1.451.563a.645.645,0,0,0-.21-.127l-8.586-3.087-17.332-6.626a.657.657,0,0,0-.446-.006l-17.619,6.144-14.15,5.495a.649.649,0,0,0-.371.841.771.771,0,0,0,.049.084l-7.43,15.476a.65.65,0,0,0,.341.884l7.153,2.9v12.234a.65.65,0,0,0,.416.607l31.84,12.321a.656.656,0,0,0,.234.044.64.64,0,0,0,.224-.045c.008,0,.017,0,.025-.005l18.237-7.551L909.5,569.864h0l.017.006a.132.132,0,0,0,.021,0,.648.648,0,0,0,.213.04h.008c.007,0,.012,0,.019,0a.661.661,0,0,0,.191-.038.157.157,0,0,0,.021,0L941.1,557.547a.654.654,0,0,0,.411-.571l.039-.765,17.758,6.422.015,0a.634.634,0,0,0,.206.037.665.665,0,0,0,.22-.042.132.132,0,0,1,.019,0L988,551.448a.65.65,0,0,0,.411-.6V539.67l6.209-2.5a.651.651,0,0,0,.348-.877Zm-34.476-25.1,14.74,5.9,11.151,5.02-27.376,10.323L943.65,526.56l-1.945-.828-.189-.409v-.152a.157.157,0,0,0,0-.021.4.4,0,0,0-.009-.06.61.61,0,0,0-.042-.164.574.574,0,0,0-.033-.066.657.657,0,0,0-.093-.128c-.017-.018-.032-.036-.05-.052a.641.641,0,0,0-.2-.12l-8.122-2.92ZM883.1,558.251a.652.652,0,0,0-.85-.352l-.033.014L878.56,556.5V545.233l21.175,8.567a.651.651,0,0,0,.8-.269l5.562-9.273,2.66-4.317.046,3.935v.038l.282,24.4L883.1,558.255Zm-18.759-23.58,10.289-3.88-4.866,10.136a.65.65,0,0,0,.341.884l7.153,2.9v2.2a.467.467,0,0,0-.061.017l-4.6,2.4Zm13.811,9-6.917-2.8,7-14.578,1.742.665,28.534,10.912-3.525,5.719-5.279,8.8Zm30.962-36.455a.652.652,0,0,0,.391,0l16.5-5.209v28.371l-12.06,4.548-4.777,1.8-16.559-6.337V502ZM938.9,525.245a.653.653,0,0,0-.046.284l-.473.178-11.075,4.176v-8.9l11.644,4.186A.712.712,0,0,0,938.9,525.245Zm-47.591,4.644-12.106-4.624,12.106-4.7Zm19.031,7.782,16.546-6.24.035-.013,1.814-.684,11.348-4.279.65.277,6.554,14.143-7.026,3.02-21.631,8.491-.178-.315Zm38.075,4.135.008-.006.009,0a.557.557,0,0,0,.088-.066.575.575,0,0,0,.112-.082.631.631,0,0,0,.08-.125.681.681,0,0,0,.054-.085v-.006a.647.647,0,0,0-.019-.5l-6.23-13.444.643.274,15.158,5.8-3.16,5.128-4.783,7.977-7.6-2.442Zm-39.106-45.622,15.4,4.864-15.4,4.862L893.9,501.046ZM846.116,517.25l17.374-6.058,17.122,6.545,7.47,2.686-10.565,4.1a.646.646,0,0,0-.22.142c-.013.013-.019.031-.03.044a.637.637,0,0,0-.113.17l-.006.009a.5.5,0,0,0-.013.078.608.608,0,0,0-.03.163.724.724,0,0,0,.021.12.773.773,0,0,0,.02.115c0,.009.01.015.014.023a.121.121,0,0,0,0,.018l.026.055-1.744,3.631-12.276,4.629L833.2,522.265Zm-13.88,6.036,30.276,11.578-3.525,5.719-5.279,8.8-21.555-8.72-6.917-2.8Zm.324,18.947,21.175,8.567a.651.651,0,0,0,.8-.269l5.562-9.273,2.734-4.437-.025,3.588,0,.492v.013l.282,24.4L832.56,553.5ZM864.388,565.3l-.283-24.389,0-.375.025-3.554,2.4,4.24c.005.008.014.01.018.018l5.231,9.281a.654.654,0,0,0,.869.256l4.613-2.413v8.582a.65.65,0,0,0,.416.607l2.8,1.085Zm75.849-8.8-29.849,11.819-.282-24.442,0-.337.025-3.552,7.644,13.537a.638.638,0,0,0,.215.217c.022.014.042.025.065.037a.631.631,0,0,0,.282.075l.005,0a.6.6,0,0,0,.071-.014.647.647,0,0,0,.157-.028l.007,0h0l.022-.009,22.2-8.337Zm1.913-11.1,8.321,2.673a.656.656,0,0,0,.757-.285l5.044-8.412,2.368-3.843-.019,2.792,0,.7v.012l.256,22.067-16.722-6.048Zm44.961,5.01-26.938,10.667-.256-22.051v-.212l.022-3.125,6.824,12.085a.647.647,0,0,0,.215.217.739.739,0,0,0,.068.038.659.659,0,0,0,.261.07c.008,0,.014.006.022.006l.007,0a.645.645,0,0,0,.235-.045l19.539-7.857Zm.409-11.775h0l-19.9,8-7.458-13.239,27.268-10.283,6.075,13.113Z" fill="#133854" stroke="#133854" stroke-width="1.1"/>
    </g>
  </g>
</svg>
