<svg xmlns="http://www.w3.org/2000/svg" width="83.043" height="93.944" viewBox="0 0 83.043 93.944">
  <g id="inter_agences" transform="translate(-6406.5 -8772)">
    <rect id="Rectangle_80" data-name="Rectangle 80" width="69" height="9" transform="translate(6417 8772)" fill="#fe5002"/>
    <g id="Groupe_225" data-name="Groupe 225" transform="translate(5493.043 8073.811)">
      <g id="Groupe_228" data-name="Groupe 228">
        <g id="Groupe_227" data-name="Groupe 227">
          <g id="Groupe_225-2" data-name="Groupe 225">
            <path id="Tracé_429" data-name="Tracé 429" d="M986.081,747.386H924.765a2.923,2.923,0,0,1-2.914-2.925V703.113a2.922,2.922,0,0,1,2.914-2.924h61.316A2.925,2.925,0,0,1,989,703.113v41.348A2.926,2.926,0,0,1,986.081,747.386Zm-61.316-46.093a1.817,1.817,0,0,0-1.81,1.82v41.348a1.818,1.818,0,0,0,1.81,1.821h61.316a1.82,1.82,0,0,0,1.815-1.821V703.113a1.819,1.819,0,0,0-1.815-1.82Z" fill="#133854" stroke="#133854" stroke-width="1"/>
          </g>
          <g id="Groupe_226" data-name="Groupe 226">
            <path id="Tracé_430" data-name="Tracé 430" d="M988.448,709.737H922.4a.552.552,0,0,1,0-1.1h66.045a.552.552,0,0,1,0,1.1Z" fill="#133854" stroke="#133854" stroke-width="1"/>
          </g>
        </g>
      </g>
      <g id="Groupe_229" data-name="Groupe 229">
        <path id="Tracé_431" data-name="Tracé 431" d="M978.532,768.58a.65.65,0,0,1-.65-.65v-8.94l-44.233-.491v9.22a.65.65,0,1,1-1.3,0v-9.877a.655.655,0,0,1,.193-.463.746.746,0,0,1,.464-.187l45.533.506a.651.651,0,0,1,.644.65v9.582A.65.65,0,0,1,978.532,768.58Z" fill="#133854" stroke="#133854" stroke-width="1"/>
      </g>
      <g id="Groupe_230" data-name="Groupe 230">
        <path id="Tracé_432" data-name="Tracé 432" d="M955.594,758.531a.65.65,0,0,1-.65-.65V747.772a.65.65,0,0,1,1.3,0v10.109A.65.65,0,0,1,955.594,758.531Z" fill="#133854" stroke="#133854" stroke-width="1"/>
      </g>
      <g id="Groupe_231" data-name="Groupe 231">
        <path id="Tracé_433" data-name="Tracé 433" d="M946.2,791.633H915.528a1.576,1.576,0,0,1-1.571-1.577V773.332a1.573,1.573,0,0,1,1.571-1.571H946.2a1.573,1.573,0,0,1,1.572,1.571v16.724A1.576,1.576,0,0,1,946.2,791.633ZM915.528,772.58a.752.752,0,0,0-.752.752v16.724a.756.756,0,0,0,.752.758H946.2a.756.756,0,0,0,.753-.758V773.332a.753.753,0,0,0-.753-.752Z" fill="#133854" stroke="#133854" stroke-width="1"/>
      </g>
      <g id="Groupe_232" data-name="Groupe 232">
        <path id="Tracé_434" data-name="Tracé 434" d="M947.358,778.885H914.367a.411.411,0,0,1-.41-.41v-2.556a.41.41,0,0,1,.41-.41h32.991a.409.409,0,0,1,.409.41v2.556A.41.41,0,0,1,947.358,778.885Zm-32.582-.82h32.172v-1.737H914.776Z" fill="#133854" stroke="#133854" stroke-width="1"/>
      </g>
      <g id="Groupe_233" data-name="Groupe 233">
        <path id="Tracé_435" data-name="Tracé 435" d="M918.332,774.455H916.6a.41.41,0,0,1,0-.82h1.734a.41.41,0,1,1,0,.82Z" fill="#133854" stroke="#133854" stroke-width="1"/>
      </g>
      <g id="Groupe_234" data-name="Groupe 234">
        <path id="Tracé_436" data-name="Tracé 436" d="M921.9,774.455h-1.728a.41.41,0,0,1,0-.82H921.9a.41.41,0,1,1,0,.82Z" fill="#133854" stroke="#133854" stroke-width="1"/>
      </g>
      <g id="Groupe_235" data-name="Groupe 235">
        <path id="Tracé_437" data-name="Tracé 437" d="M925.458,774.455h-1.731a.41.41,0,0,1,0-.82h1.731a.41.41,0,0,1,0,.82Z" fill="#133854" stroke="#133854" stroke-width="1"/>
      </g>
      <g id="Groupe_236" data-name="Groupe 236">
        <path id="Tracé_438" data-name="Tracé 438" d="M994.428,791.633H963.761a1.575,1.575,0,0,1-1.571-1.577V773.332a1.572,1.572,0,0,1,1.571-1.571h30.667A1.574,1.574,0,0,1,996,773.332v16.724A1.576,1.576,0,0,1,994.428,791.633ZM963.761,772.58a.752.752,0,0,0-.752.752v16.724a.756.756,0,0,0,.752.758h30.667a.757.757,0,0,0,.753-.758V773.332a.753.753,0,0,0-.753-.752Z" fill="#133854" stroke="#133854" stroke-width="1"/>
      </g>
      <g id="Groupe_237" data-name="Groupe 237">
        <path id="Tracé_439" data-name="Tracé 439" d="M995.59,778.885H962.6a.41.41,0,0,1-.409-.41v-2.556a.409.409,0,0,1,.409-.41H995.59a.409.409,0,0,1,.41.41v2.556A.41.41,0,0,1,995.59,778.885Zm-32.581-.82h32.172v-1.737H963.009Z" fill="#133854" stroke="#133854" stroke-width="1"/>
      </g>
      <g id="Groupe_238" data-name="Groupe 238">
        <path id="Tracé_440" data-name="Tracé 440" d="M966.565,774.455h-1.734a.41.41,0,0,1,0-.82h1.734a.41.41,0,0,1,0,.82Z" fill="#133854" stroke="#133854" stroke-width="1"/>
      </g>
      <g id="Groupe_239" data-name="Groupe 239">
        <path id="Tracé_441" data-name="Tracé 441" d="M970.128,774.455H968.4a.41.41,0,0,1,0-.82h1.727a.41.41,0,1,1,0,.82Z" fill="#133854" stroke="#133854" stroke-width="1"/>
      </g>
      <g id="Groupe_240" data-name="Groupe 240">
        <path id="Tracé_442" data-name="Tracé 442" d="M973.691,774.455H971.96a.41.41,0,1,1,0-.82h1.731a.41.41,0,0,1,0,.82Z" fill="#133854" stroke="#133854" stroke-width="1"/>
      </g>
    </g>
  </g>
</svg>
