<svg xmlns="http://www.w3.org/2000/svg" width="157.55" height="86.784" viewBox="0 0 157.55 86.784">
  <g id="intranet" transform="translate(-10192.45 -8282)">
    <rect id="Rectangle_92" data-name="Rectangle 92" width="49" height="27" transform="translate(10193 8282)" fill="#fe5002"/>
    <rect id="Rectangle_93" data-name="Rectangle 93" width="49" height="27" transform="translate(10301 8333)" fill="#fe5002"/>
    <g id="Groupe_327" data-name="Groupe 327" transform="translate(8996.942 8098)">
      <g id="Groupe_332" data-name="Groupe 332">
        <g id="Groupe_331" data-name="Groupe 331">
          <g id="Groupe_327-2" data-name="Groupe 327">
            <path id="Tracé_537" data-name="Tracé 537" d="M1256.988,224h-56.957a.534.534,0,0,1-.533-.534V189.262a3.263,3.263,0,0,1,3.258-3.262h51.507a3.264,3.264,0,0,1,3.259,3.262v34.205A.534.534,0,0,1,1256.988,224Zm-56.424-1.068h55.891V189.262a2.2,2.2,0,0,0-2.192-2.195h-51.507a2.2,2.2,0,0,0-2.192,2.195Z" fill="#133854" stroke="#133854" stroke-width="1.1"/>
          </g>
          <g id="Groupe_328" data-name="Groupe 328">
            <path id="Tracé_538" data-name="Tracé 538" d="M1253.485,220.5h-49.946a.533.533,0,0,1-.533-.534V190.036a.533.533,0,0,1,.533-.533h49.946a.533.533,0,0,1,.533.533v29.927A.534.534,0,0,1,1253.485,220.5Zm-49.413-1.067h48.879V190.57h-48.879Z" fill="#133854" stroke="#133854" stroke-width="1.1"/>
          </g>
          <g id="Groupe_329" data-name="Groupe 329">
            <path id="Tracé_539" data-name="Tracé 539" d="M1256.992,229.234h-56.961c-2.19,0-3.973-1.414-3.973-3.151v-2.616a.534.534,0,0,1,.533-.534h63.838a.534.534,0,0,1,.534.534v2.616C1260.963,227.82,1259.182,229.234,1256.992,229.234ZM1197.125,224v2.082c0,1.13,1.331,2.084,2.906,2.084h56.961c1.575,0,2.9-.954,2.9-2.084V224Z" fill="#133854" stroke="#133854" stroke-width="1.1"/>
          </g>
          <g id="Groupe_330" data-name="Groupe 330">
            <path id="Tracé_540" data-name="Tracé 540" d="M1228.509,227.761a1.676,1.676,0,1,1,1.678-1.678A1.679,1.679,0,0,1,1228.509,227.761Zm0-2.285a.609.609,0,1,0,.611.607A.607.607,0,0,0,1228.509,225.476Z" fill="#133854" stroke="#133854" stroke-width="1.1"/>
          </g>
        </g>
      </g>
      <g id="Groupe_338" data-name="Groupe 338">
        <g id="Groupe_337" data-name="Groupe 337">
          <g id="Groupe_333" data-name="Groupe 333">
            <path id="Tracé_541" data-name="Tracé 541" d="M1341.988,265h-56.957a.534.534,0,0,1-.533-.534V230.262a3.263,3.263,0,0,1,3.258-3.262h51.507a3.264,3.264,0,0,1,3.259,3.262v34.205A.534.534,0,0,1,1341.988,265Zm-56.424-1.068h55.891V230.262a2.2,2.2,0,0,0-2.192-2.195h-51.507a2.2,2.2,0,0,0-2.192,2.195Z" fill="#133854" stroke="#133854" stroke-width="1.1"/>
          </g>
          <g id="Groupe_334" data-name="Groupe 334">
            <path id="Tracé_542" data-name="Tracé 542" d="M1338.485,261.5h-49.946a.533.533,0,0,1-.533-.534V231.036a.533.533,0,0,1,.533-.533h49.946a.533.533,0,0,1,.533.533v29.927A.534.534,0,0,1,1338.485,261.5Zm-49.413-1.067h48.879V231.57h-48.879Z" fill="#133854" stroke="#133854" stroke-width="1.1"/>
          </g>
          <g id="Groupe_335" data-name="Groupe 335">
            <path id="Tracé_543" data-name="Tracé 543" d="M1341.992,270.234h-56.961c-2.19,0-3.973-1.414-3.973-3.151v-2.616a.534.534,0,0,1,.533-.534h63.838a.534.534,0,0,1,.534.534v2.616C1345.963,268.82,1344.182,270.234,1341.992,270.234ZM1282.125,265v2.082c0,1.13,1.331,2.084,2.906,2.084h56.961c1.575,0,2.9-.954,2.9-2.084V265Z" fill="#133854" stroke="#133854" stroke-width="1.1"/>
          </g>
          <g id="Groupe_336" data-name="Groupe 336">
            <path id="Tracé_544" data-name="Tracé 544" d="M1313.509,268.761a1.676,1.676,0,1,1,1.678-1.678A1.679,1.679,0,0,1,1313.509,268.761Zm0-2.285a.608.608,0,1,0,.611.607A.607.607,0,0,0,1313.509,266.476Z" fill="#133854" stroke="#133854" stroke-width="1.1"/>
          </g>
        </g>
      </g>
      <g id="Groupe_343" data-name="Groupe 343">
        <g id="Groupe_339" data-name="Groupe 339">
          <rect id="Rectangle_86" data-name="Rectangle 86" width="10" height="1.5" transform="translate(1257.128 196.25)" fill="#133854" stroke="#133854" stroke-width="1.1"/>
        </g>
        <g id="Groupe_340" data-name="Groupe 340">
          <rect id="Rectangle_87" data-name="Rectangle 87" width="14.957" height="1.5" transform="translate(1282.085 196.25)" fill="#133854" stroke="#133854" stroke-width="1.1"/>
        </g>
        <g id="Groupe_341" data-name="Groupe 341">
          <path id="Tracé_545" data-name="Tracé 545" d="M1322.75,207h-1.5v-9.25H1312v-1.5h10.75Z" fill="#133854" stroke="#133854" stroke-width="1.1"/>
        </g>
        <g id="Groupe_342" data-name="Groupe 342">
          <rect id="Rectangle_88" data-name="Rectangle 88" width="1.5" height="10" transform="translate(1321.25 217.282)" fill="#133854" stroke="#133854" stroke-width="1.1"/>
        </g>
      </g>
      <g id="Groupe_348" data-name="Groupe 348">
        <g id="Groupe_344" data-name="Groupe 344">
          <rect id="Rectangle_89" data-name="Rectangle 89" width="10" height="1.5" transform="translate(1274.957 253.25)" fill="#133854" stroke="#133854" stroke-width="1.1"/>
        </g>
        <g id="Groupe_345" data-name="Groupe 345">
          <rect id="Rectangle_90" data-name="Rectangle 90" width="13.985" height="1.5" transform="translate(1246.986 253.25)" fill="#133854" stroke="#133854" stroke-width="1.1"/>
        </g>
        <g id="Groupe_346" data-name="Groupe 346">
          <path id="Tracé_546" data-name="Tracé 546" d="M1233,254.75h-10.75V244h1.5v9.25H1233Z" fill="#133854" stroke="#133854" stroke-width="1.1"/>
        </g>
        <g id="Groupe_347" data-name="Groupe 347">
          <rect id="Rectangle_91" data-name="Rectangle 91" width="1.5" height="10" transform="translate(1222.25 228.79)" fill="#133854" stroke="#133854" stroke-width="1.1"/>
        </g>
      </g>
    </g>
  </g>
</svg>
