<svg xmlns="http://www.w3.org/2000/svg" width="72.292" height="91.791" viewBox="0 0 72.292 91.791">
  <g id="parametrage" transform="translate(-4778.45 -8774.45)">
    <path id="Tracé_389" data-name="Tracé 389" d="M4828.84,8847.881v17.237l16.9-16.567Z" transform="translate(5 -4)" fill="#fe5002"/>
    <rect id="Rectangle_76" data-name="Rectangle 76" width="47" height="5" transform="translate(4788 8787)" fill="#fe5002"/>
    <rect id="Rectangle_77" data-name="Rectangle 77" width="47" height="5" transform="translate(4788 8815)" fill="#fe5002"/>
    <g id="Groupe_165" data-name="Groupe 165" transform="translate(3461.367 8422.193)">
      <g id="Groupe_182" data-name="Groupe 182" transform="translate(1317.633 352.807)">
        <g id="Groupe_171" data-name="Groupe 171">
          <g id="Groupe_165-2" data-name="Groupe 165" transform="translate(49.18 72.725)">
            <path id="Tracé_374" data-name="Tracé 374" d="M1361.3,434.211a.763.763,0,0,1-.766-.745V416.991a.746.746,0,0,1,.746-.746h16.4a.74.74,0,0,1,.565.261.773.773,0,0,1-.017,1.034l-16.4,16.452A.743.743,0,0,1,1361.3,434.211Zm.726-16.475v13.946l13.9-13.946Z" transform="translate(-1360.533 -416.245)" fill="#133854" stroke="#133854" stroke-width="1.1"/>
          </g>
          <g id="Groupe_166" data-name="Groupe 166">
            <path id="Tracé_375" data-name="Tracé 375" d="M1367.559,443.5h-49.181a.745.745,0,0,1-.745-.745v-89.2a.745.745,0,0,1,.745-.745h65.577a.745.745,0,0,1,.746.745v72.726a.745.745,0,0,1-.746.745H1368.3v15.73A.745.745,0,0,1,1367.559,443.5Zm-48.435-1.491h47.689V426.278a.746.746,0,0,1,.746-.746h15.651V354.3h-64.086Zm17.583-15.621a3.406,3.406,0,0,1-2.915-1.636l-2.363-3.917a3.4,3.4,0,0,1,1.147-4.664l27.444-16.617a.739.739,0,0,1,.467-.1l7.655.817a.744.744,0,0,1,.627.977l-2.542,7.622a.736.736,0,0,1-.32.4l-25.093,15.2a.658.658,0,0,1-.079.044l-2.268,1.388A3.4,3.4,0,0,1,1336.708,426.386Zm23.871-25.429-27.231,16.489a1.915,1.915,0,0,0-.644,2.614l2.364,3.919a1.916,1.916,0,0,0,2.626.642l2.328-1.426a.667.667,0,0,1,.094-.049l24.785-15.013,2.162-6.483Zm-20.15,22.87h0Z" transform="translate(-1317.633 -352.807)" fill="#133854" stroke="#133854" stroke-width="1.1"/>
          </g>
          <g id="Groupe_167" data-name="Groupe 167" transform="translate(42.03 46.638)">
            <path id="Tracé_376" data-name="Tracé 376" d="M1360.154,403.418a.749.749,0,0,1-.637-.359l-5.113-8.439a.745.745,0,0,1,.716-1.128l7.655.817a.744.744,0,0,1,.627.977l-2.542,7.622a.744.744,0,0,1-.622.5C1360.209,403.416,1360.182,403.418,1360.154,403.418Zm-3.695-8.284,3.5,5.773,1.739-5.214Z" transform="translate(-1354.296 -393.489)" fill="#133854" stroke="#133854" stroke-width="1.1"/>
          </g>
          <g id="Groupe_168" data-name="Groupe 168" transform="translate(19.477 50.858)">
            <path id="Tracé_377" data-name="Tracé 377" d="M1337.942,418.078a.764.764,0,0,1-.649-.358l-2.563-4.213a.745.745,0,0,1,.338-1.066l25.028-15.164a.762.762,0,0,1,.564-.086.747.747,0,0,1,.46.338l2.553,4.219a.747.747,0,0,1-.252,1.024l-25.093,15.2A.735.735,0,0,1,1337.942,418.078Zm-1.548-4.7,1.788,2.936,23.829-14.434-1.781-2.944Z" transform="translate(-1334.623 -397.17)" fill="#133854" stroke="#133854" stroke-width="1.1"/>
          </g>
          <g id="Groupe_169" data-name="Groupe 169" transform="translate(16.93 46.637)">
            <path id="Tracé_378" data-name="Tracé 378" d="M1335.7,414.407a.768.768,0,0,1-.65-.36l-2.534-4.2a.753.753,0,0,1,.233-1.047l25.1-15.2a.746.746,0,0,1,1.024.25l2.561,4.22a.745.745,0,0,1-.25,1.024l-25.1,15.209A.749.749,0,0,1,1335.7,414.407Zm-1.541-4.724,1.785,2.96,23.833-14.44L1358,395.257Z" transform="translate(-1332.401 -393.489)" fill="#133854" stroke="#133854" stroke-width="1.1"/>
          </g>
          <g id="Groupe_170" data-name="Groupe 170" transform="translate(13.307 61.836)">
            <path id="Tracé_379" data-name="Tracé 379" d="M1335.008,418.49a3.406,3.406,0,0,1-2.915-1.636l-2.363-3.917a3.4,3.4,0,0,1,1.147-4.664l2.339-1.418a.744.744,0,0,1,.938.135.8.8,0,0,1,.1.128l5.1,8.425a.746.746,0,0,1-.242,1.02L1336.768,418A3.4,3.4,0,0,1,1335.008,418.49Zm-1.655-9.975-1.7,1.034a1.915,1.915,0,0,0-.644,2.614l2.364,3.919a1.916,1.916,0,0,0,2.626.642l1.7-1.038-1.987-3.264,0,0Z" transform="translate(-1329.241 -406.746)" fill="#133854" stroke="#133854" stroke-width="1.1"/>
          </g>
        </g>
        <g id="Groupe_181" data-name="Groupe 181">
          <g id="Groupe_172" data-name="Groupe 172">
            <path id="Tracé_380" data-name="Tracé 380" d="M1367.559,443.5h-49.181a.745.745,0,0,1-.745-.745v-89.2a.745.745,0,0,1,.745-.745h65.577a.745.745,0,0,1,.746.745v72.726a.745.745,0,0,1-.746.745H1368.3v15.73A.745.745,0,0,1,1367.559,443.5Zm-48.435-1.491h47.689V426.278a.746.746,0,0,1,.746-.746h15.651V354.3h-64.086Z" transform="translate(-1317.633 -352.807)" fill="#133854" stroke="#133854" stroke-width="1.1"/>
          </g>
          <g id="Groupe_173" data-name="Groupe 173" transform="translate(49.201 72.749)">
            <path id="Tracé_381" data-name="Tracé 381" d="M1361.3,434.208a.745.745,0,0,1-.527-1.271l16.4-16.452a.745.745,0,1,1,1.055,1.052l-16.4,16.452A.743.743,0,0,1,1361.3,434.208Z" transform="translate(-1360.551 -416.266)" fill="#133854" stroke="#133854" stroke-width="1.1"/>
          </g>
          <g id="Groupe_174" data-name="Groupe 174" transform="translate(10.311 16.43)">
            <path id="Tracé_382" data-name="Tracé 382" d="M1371.535,368.629h-44.162a.745.745,0,1,1,0-1.49h44.162a.745.745,0,0,1,0,1.49Z" transform="translate(-1326.627 -367.139)" fill="#133854" stroke="#133854" stroke-width="1.1"/>
          </g>
          <g id="Groupe_175" data-name="Groupe 175" transform="translate(10.311 28.283)">
            <path id="Tracé_383" data-name="Tracé 383" d="M1371.535,378.968h-44.162a.745.745,0,1,1,0-1.49h44.162a.745.745,0,0,1,0,1.49Z" transform="translate(-1326.627 -377.478)" fill="#133854" stroke="#133854" stroke-width="1.1"/>
          </g>
          <g id="Groupe_176" data-name="Groupe 176" transform="translate(10.311 40.111)">
            <path id="Tracé_384" data-name="Tracé 384" d="M1371.535,389.286h-44.162a.745.745,0,1,1,0-1.49h44.162a.745.745,0,0,1,0,1.49Z" transform="translate(-1326.627 -387.796)" fill="#133854" stroke="#133854" stroke-width="1.1"/>
          </g>
          <g id="Groupe_177" data-name="Groupe 177" transform="translate(13.307 46.636)">
            <path id="Tracé_385" data-name="Tracé 385" d="M1335.008,420.431a3.406,3.406,0,0,1-2.915-1.636l-2.363-3.917a3.4,3.4,0,0,1,1.147-4.664l27.444-16.617a.739.739,0,0,1,.467-.1l7.655.817a.744.744,0,0,1,.627.977l-2.542,7.622a.736.736,0,0,1-.32.4l-25.093,15.2a.658.658,0,0,1-.079.044l-2.268,1.388A3.4,3.4,0,0,1,1335.008,420.431ZM1358.88,395l-27.231,16.489A1.915,1.915,0,0,0,1331,414.1l2.364,3.919a1.916,1.916,0,0,0,2.626.642l2.328-1.426a.85.85,0,0,1,.1-.05l24.784-15.012,2.162-6.483Z" transform="translate(-1329.241 -393.488)" fill="#133854" stroke="#133854" stroke-width="1.1"/>
          </g>
          <g id="Groupe_178" data-name="Groupe 178" transform="translate(16.935 61.847)">
            <path id="Tracé_386" data-name="Tracé 386" d="M1338.266,416.68a.744.744,0,0,1-.488-.18.723.723,0,0,1-.161-.183l-5.1-8.429a.745.745,0,0,1,1.276-.77l5.053,8.345a.742.742,0,0,1,.17.468A.75.75,0,0,1,1338.266,416.68Z" transform="translate(-1332.405 -406.756)" fill="#133854" stroke="#133854" stroke-width="1.1"/>
          </g>
          <g id="Groupe_179" data-name="Groupe 179" transform="translate(42.029 46.637)">
            <path id="Tracé_387" data-name="Tracé 387" d="M1360.155,403.418a.748.748,0,0,1-.639-.359l-5.113-8.439a.745.745,0,1,1,1.274-.774l5.114,8.44a.744.744,0,0,1-.636,1.132Z" transform="translate(-1354.295 -393.488)" fill="#133854" stroke="#133854" stroke-width="1.1"/>
          </g>
          <g id="Groupe_180" data-name="Groupe 180" transform="translate(19.489 50.857)">
            <path id="Tracé_388" data-name="Tracé 388" d="M1335.379,413.868a.746.746,0,0,1-.387-1.383l25.1-15.209a.745.745,0,0,1,.773,1.275l-25.1,15.209A.74.74,0,0,1,1335.379,413.868Z" transform="translate(-1334.633 -397.17)" fill="#133854" stroke="#133854" stroke-width="1.1"/>
          </g>
        </g>
      </g>
    </g>
  </g>
</svg>
