<svg xmlns="http://www.w3.org/2000/svg" width="110.55" height="75.256" viewBox="0 0 110.55 75.256">
  <g id="relacion_cliente" transform="translate(-6951.45 -8293)">
    <rect id="Rectangle_75" data-name="Rectangle 75" width="46" height="27" transform="translate(7016 8293)" fill="#fe5002"/>
    <circle id="Ellipse_19" data-name="Ellipse 19" cx="7" cy="7" r="7" transform="translate(6955 8338)" fill="#fe5002"/>
    <g id="Groupe_136" data-name="Groupe 136" transform="translate(5826.813 7935.841)">
      <g id="Groupe_158" data-name="Groupe 158">
        <g id="Groupe_137" data-name="Groupe 137">
          <g id="Groupe_136-2" data-name="Groupe 136">
            <path id="Tracé_357" data-name="Tracé 357" d="M1190,397.94a.709.709,0,0,1-.7-.808l1.427-9.738h-6.3a.707.707,0,0,1-.706-.707V360.866a.707.707,0,0,1,.706-.707h40.042a.707.707,0,0,1,.707.707v25.821a.707.707,0,0,1-.707.707h-21.662l-12.359,10.381A.705.705,0,0,1,1190,397.94Zm-4.86-11.959h6.4a.708.708,0,0,1,.7.808l-1.276,8.71,11.134-9.353a.708.708,0,0,1,.454-.165h21.213V361.572h-38.629Z" fill="#133854" stroke="#133854" stroke-width="1.1"/>
          </g>
        </g>
        <g id="Groupe_139" data-name="Groupe 139">
          <g id="Groupe_138" data-name="Groupe 138">
            <path id="Tracé_358" data-name="Tracé 358" d="M1209.254,365.915h-17.645a.706.706,0,1,1,0-1.412h17.645a.706.706,0,1,1,0,1.412Z" fill="#133854" stroke="#133854" stroke-width="1.1"/>
          </g>
        </g>
        <g id="Groupe_141" data-name="Groupe 141">
          <g id="Groupe_140" data-name="Groupe 140">
            <path id="Tracé_359" data-name="Tracé 359" d="M1217.315,365.915h-4.44a.706.706,0,1,1,0-1.412h4.44a.706.706,0,1,1,0,1.412Z" fill="#133854" stroke="#133854" stroke-width="1.1"/>
          </g>
        </g>
        <g id="Groupe_143" data-name="Groupe 143">
          <g id="Groupe_142" data-name="Groupe 142">
            <path id="Tracé_360" data-name="Tracé 360" d="M1217.315,369.959h-17.654a.706.706,0,1,1,0-1.412h17.654a.706.706,0,1,1,0,1.412Z" fill="#133854" stroke="#133854" stroke-width="1.1"/>
          </g>
        </g>
        <g id="Groupe_145" data-name="Groupe 145">
          <g id="Groupe_144" data-name="Groupe 144">
            <path id="Tracé_361" data-name="Tracé 361" d="M1196.049,369.959h-4.44a.706.706,0,1,1,0-1.412h4.44a.706.706,0,1,1,0,1.412Z" fill="#133854" stroke="#133854" stroke-width="1.1"/>
          </g>
        </g>
        <g id="Groupe_147" data-name="Groupe 147">
          <g id="Groupe_146" data-name="Groupe 146">
            <path id="Tracé_362" data-name="Tracé 362" d="M1209.254,374.011h-17.645a.706.706,0,0,1,0-1.413h17.645a.706.706,0,1,1,0,1.413Z" fill="#133854" stroke="#133854" stroke-width="1.1"/>
          </g>
        </g>
        <g id="Groupe_149" data-name="Groupe 149">
          <g id="Groupe_148" data-name="Groupe 148">
            <path id="Tracé_363" data-name="Tracé 363" d="M1217.315,374.011h-4.44a.706.706,0,0,1,0-1.413h4.44a.706.706,0,0,1,0,1.413Z" fill="#133854" stroke="#133854" stroke-width="1.1"/>
          </g>
        </g>
        <g id="Groupe_151" data-name="Groupe 151">
          <g id="Groupe_150" data-name="Groupe 150">
            <path id="Tracé_364" data-name="Tracé 364" d="M1217.315,378.055h-17.654a.706.706,0,0,1,0-1.413h17.654a.706.706,0,0,1,0,1.413Z" fill="#133854" stroke="#133854" stroke-width="1.1"/>
          </g>
        </g>
        <g id="Groupe_153" data-name="Groupe 153">
          <g id="Groupe_152" data-name="Groupe 152">
            <path id="Tracé_365" data-name="Tracé 365" d="M1196.049,378.055h-4.44a.706.706,0,0,1,0-1.413h4.44a.706.706,0,0,1,0,1.413Z" fill="#133854" stroke="#133854" stroke-width="1.1"/>
          </g>
        </g>
        <g id="Groupe_155" data-name="Groupe 155">
          <g id="Groupe_154" data-name="Groupe 154">
            <path id="Tracé_366" data-name="Tracé 366" d="M1209.254,382.1h-17.645a.706.706,0,0,1,0-1.413h17.645a.706.706,0,1,1,0,1.413Z" fill="#133854" stroke="#133854" stroke-width="1.1"/>
          </g>
        </g>
        <g id="Groupe_157" data-name="Groupe 157">
          <g id="Groupe_156" data-name="Groupe 156">
            <path id="Tracé_367" data-name="Tracé 367" d="M1217.315,382.1h-4.44a.706.706,0,0,1,0-1.413h4.44a.706.706,0,0,1,0,1.413Z" fill="#133854" stroke="#133854" stroke-width="1.1"/>
          </g>
        </g>
      </g>
      <g id="Groupe_159" data-name="Groupe 159">
        <path id="Tracé_368" data-name="Tracé 368" d="M1153,431.736a.75.75,0,0,1-.75-.75v-5.225a6.643,6.643,0,0,0-6.633-6.637h-12.3a6.642,6.642,0,0,0-6.631,6.637v5.225a.75.75,0,0,1-1.5,0v-5.225a8.143,8.143,0,0,1,8.131-8.137h12.3a8.144,8.144,0,0,1,8.133,8.137v5.225A.75.75,0,0,1,1153,431.736Z" fill="#133854" stroke="#133854" stroke-width="1.1"/>
      </g>
      <g id="Groupe_160" data-name="Groupe 160">
        <path id="Tracé_369" data-name="Tracé 369" d="M1139.5,416.139a7.38,7.38,0,1,1,7.381-7.38A7.389,7.389,0,0,1,1139.5,416.139Zm0-13.26a5.88,5.88,0,1,0,5.881,5.88A5.887,5.887,0,0,0,1139.5,402.879Z" fill="#133854" stroke="#133854" stroke-width="1.1"/>
      </g>
      <g id="Groupe_161" data-name="Groupe 161">
        <path id="Tracé_370" data-name="Tracé 370" d="M1221,431.736a.75.75,0,0,1-.75-.75v-5.225a6.643,6.643,0,0,0-6.633-6.637h-12.3a6.642,6.642,0,0,0-6.631,6.637v5.225a.75.75,0,0,1-1.5,0v-5.225a8.143,8.143,0,0,1,8.131-8.137h12.3a8.144,8.144,0,0,1,8.133,8.137v5.225A.75.75,0,0,1,1221,431.736Z" fill="#133854" stroke="#133854" stroke-width="1.1"/>
      </g>
      <g id="Groupe_162" data-name="Groupe 162">
        <path id="Tracé_371" data-name="Tracé 371" d="M1207.5,416.139a7.38,7.38,0,1,1,7.381-7.38A7.389,7.389,0,0,1,1207.5,416.139Zm0-13.26a5.88,5.88,0,1,0,5.881,5.88A5.887,5.887,0,0,0,1207.5,402.879Z" fill="#133854" stroke="#133854" stroke-width="1.1"/>
      </g>
      <g id="Groupe_163" data-name="Groupe 163">
        <path id="Tracé_372" data-name="Tracé 372" d="M1193.686,431.865a.75.75,0,0,1-.75-.75v-7.808a10.3,10.3,0,0,0-10.281-10.285H1164.28A10.294,10.294,0,0,0,1154,423.307v7.808a.75.75,0,0,1-1.5,0v-7.808a11.8,11.8,0,0,1,11.779-11.785h18.375a11.8,11.8,0,0,1,11.781,11.785v7.808A.75.75,0,0,1,1193.686,431.865Z" fill="#133854" stroke="#133854" stroke-width="1.1"/>
      </g>
      <g id="Groupe_164" data-name="Groupe 164">
        <path id="Tracé_373" data-name="Tracé 373" d="M1173.521,408.562a10.656,10.656,0,1,1,10.656-10.656A10.669,10.669,0,0,1,1173.521,408.562Zm0-19.812a9.156,9.156,0,1,0,9.156,9.156A9.167,9.167,0,0,0,1173.521,388.75Z" fill="#133854" stroke="#133854" stroke-width="1.1"/>
      </g>
    </g>
  </g>
</svg>
