<svg xmlns="http://www.w3.org/2000/svg" width="94" height="85.11" viewBox="0 0 94 85.11">
  <g id="remises_banque" transform="translate(-7478 -8786)">
    <ellipse id="Ellipse_23" data-name="Ellipse 23" cx="34" cy="35.5" rx="34" ry="35.5" transform="translate(7504 8786)" fill="#fe5002"/>
    <g id="Groupe_261" data-name="Groupe 261" transform="translate(6273.768 8048.619)">
      <g id="Groupe_265" data-name="Groupe 265">
        <g id="Groupe_261-2" data-name="Groupe 261">
          <path id="Tracé_461" data-name="Tracé 461" d="M1244.786,821.491a39.555,39.555,0,1,1,39.556-39.559A39.6,39.6,0,0,1,1244.786,821.491Zm0-77.809a38.254,38.254,0,1,0,38.256,38.25A38.294,38.294,0,0,0,1244.786,743.682Z" fill="#133854" stroke="#133854" stroke-width="2"/>
        </g>
        <g id="Groupe_262" data-name="Groupe 262">
          <path id="Tracé_462" data-name="Tracé 462" d="M1260.81,778.6h-38.728a.651.651,0,1,1,0-1.3h38.728a.651.651,0,1,1,0,1.3Z" fill="#133854" stroke="#133854" stroke-width="2"/>
        </g>
        <g id="Groupe_263" data-name="Groupe 263">
          <path id="Tracé_463" data-name="Tracé 463" d="M1260.81,787.192h-38.728a.651.651,0,1,1,0-1.3h38.728a.651.651,0,1,1,0,1.3Z" fill="#133854" stroke="#133854" stroke-width="2"/>
        </g>
        <g id="Groupe_264" data-name="Groupe 264">
          <path id="Tracé_464" data-name="Tracé 464" d="M1255.891,804.784h-7.01a22.535,22.535,0,0,1,0-45.07h7.01a.651.651,0,1,1,0,1.3h-7.01a21.234,21.234,0,0,0,0,42.469h7.01a.65.65,0,1,1,0,1.3Z" fill="#133854" stroke="#133854" stroke-width="2"/>
        </g>
      </g>
    </g>
  </g>
</svg>
