<svg xmlns="http://www.w3.org/2000/svg" width="94.844" height="82.862" viewBox="0 0 94.844 82.862">
  <g id="reservation_stock" transform="translate(-5856.3 -8294.958)">
    <path id="Tracé_356" data-name="Tracé 356" d="M5881.1,8327.069h60.044l-8.7,39.134H5892.63Z" transform="translate(10 -6)" fill="#fe5002"/>
    <g id="Groupe_115" data-name="Groupe 115" transform="translate(4684.45 7953)">
      <g id="Groupe_131" data-name="Groupe 131" transform="translate(1203.215 342.5)">
        <g id="Groupe_130" data-name="Groupe 130">
          <g id="Groupe_129" data-name="Groupe 129">
            <g id="Groupe_121" data-name="Groupe 121" transform="translate(0 2.781)">
              <g id="Groupe_115-2" data-name="Groupe 115" transform="translate(23.974 14.222)">
                <path id="Tracé_340" data-name="Tracé 340" d="M1211.91,371.471a.823.823,0,0,1-.717-.42l-5.445-9.647a.94.94,0,0,1-.081-.728.86.86,0,0,1,.46-.531l19.3-7.274a.823.823,0,0,1,1.038.423l4.474,9.654a.82.82,0,0,1,.018.651.834.834,0,0,1-.458.462l-18.282,7.351A.838.838,0,0,1,1211.91,371.471Zm-4.3-10.123,4.665,8.264,16.807-6.758-3.787-8.17Z" transform="translate(-1205.627 -352.818)" fill="#133854" stroke="#133854" stroke-width="1"/>
              </g>
              <g id="Groupe_116" data-name="Groupe 116" transform="translate(23.861 21.598)">
                <path id="Tracé_341" data-name="Tracé 341" d="M1206.685,378.421a.827.827,0,0,1-.824-.814l-.219-18.943a.913.913,0,0,1-.038-.109.9.9,0,0,1,.035-.659l.12-.2a.832.832,0,0,1,.326-.307.873.873,0,0,1,1.144.3l5.089,9.018,13.139-5.282a.823.823,0,0,1,1.13.765v7.847a.825.825,0,0,1-.521.766l-19.078,7.554A.8.8,0,0,1,1206.685,378.421Zm.635-17.213.175,15.182,17.445-6.908v-6.068l-12.676,5.1a.826.826,0,0,1-1.025-.361Z" transform="translate(-1205.559 -357.293)" fill="#133854" stroke="#133854" stroke-width="1"/>
              </g>
              <g id="Groupe_117" data-name="Groupe 117" transform="translate(24.19)">
                <path id="Tracé_342" data-name="Tracé 342" d="M1211.545,353.725l0,3.057h-.918l-.018-9.293a.463.463,0,0,1,.461-.463h.9l-2.231-1.791-2.225,1.791h.9a.462.462,0,0,1,.457.463V354.4h-.923v-6.452h-1.739a.481.481,0,0,1-.361-.175.466.466,0,0,1-.1-.287.456.456,0,0,1,.175-.354l3.52-2.841a.458.458,0,0,1,.587,0l.079.059,3.423,2.759a.458.458,0,0,1-.259.839h-1.75Z" transform="translate(-1205.758 -344.187)" fill="#133854" stroke="#133854" stroke-width="1"/>
              </g>
              <g id="Groupe_118" data-name="Groupe 118" transform="translate(17.588 0.004)">
                <path id="Tracé_343" data-name="Tracé 343" d="M1202.292,354.137l-.366-.3a.46.46,0,0,1-.073-.648.478.478,0,0,1,.355-.173h1.745V346.57h.923v6.913a.462.462,0,0,1-.461.461h-.895l2.226,1.786,2.225-1.786h-.9a.459.459,0,0,1-.455-.461l.007-9.293h.918v3.3l-.007,5.534h1.74a.461.461,0,0,1,.46.461.47.47,0,0,1-.2.384l-3.508,2.813a.45.45,0,0,1-.573-.007Z" transform="translate(-1201.752 -344.19)" fill="#133854" stroke="#133854" stroke-width="1"/>
              </g>
              <g id="Groupe_119" data-name="Groupe 119" transform="translate(4.637 21.803)">
                <path id="Tracé_344" data-name="Tracé 344" d="M1214.243,378.34a.843.843,0,0,1-.3-.054l-19.528-7.554a.826.826,0,0,1-.526-.77v-7.77a.822.822,0,0,1,1.132-.763l12.874,5.209,5.3-8.821a.826.826,0,0,1,.508-.376.84.84,0,0,1,.625.092,1.087,1.087,0,0,1,.517.77l.222,19.2a.823.823,0,0,1-.824.834Zm-18.7-8.942,17.864,6.91-.176-15.344-4.28,7.126a.827.827,0,0,1-1.015.339l-12.392-5.015Z" transform="translate(-1193.893 -357.418)" fill="#133854" stroke="#133854" stroke-width="1"/>
              </g>
              <g id="Groupe_120" data-name="Groupe 120" transform="translate(0 14.222)">
                <path id="Tracé_345" data-name="Tracé 345" d="M1210.066,371.471a.824.824,0,0,1-.31-.061l-18.16-7.351a.833.833,0,0,1-.461-.466.821.821,0,0,1,.026-.654l4.634-9.652a.824.824,0,0,1,1.038-.414l19.306,7.383a.823.823,0,0,1,.41,1.195l-5.778,9.621A.825.825,0,0,1,1210.066,371.471Zm-17.038-8.61,16.694,6.758,4.909-8.177-17.676-6.76Z" transform="translate(-1191.079 -352.818)" fill="#133854" stroke="#133854" stroke-width="1"/>
              </g>
            </g>
            <g id="Groupe_128" data-name="Groupe 128">
              <g id="Groupe_122" data-name="Groupe 122" transform="translate(4.637 28.457)">
                <path id="Tracé_346" data-name="Tracé 346" d="M1214.243,376.817a.837.837,0,0,1-.3-.054l-19.528-7.554a.826.826,0,0,1-.526-.77v-7.77a.824.824,0,0,1,1.648,0v7.206l18.7,7.233,18.257-7.229v-7.287a.824.824,0,1,1,1.648,0v7.847a.825.825,0,0,1-.521.766l-19.078,7.554A.8.8,0,0,1,1214.243,376.817Z" transform="translate(-1193.893 -359.768)" fill="#133854" stroke="#133854" stroke-width="1"/>
              </g>
              <g id="Groupe_123" data-name="Groupe 123" transform="translate(0 17.004)">
                <path id="Tracé_347" data-name="Tracé 347" d="M1210.066,371.471a.824.824,0,0,1-.31-.061l-18.16-7.351a.833.833,0,0,1-.461-.466.821.821,0,0,1,.026-.654l4.634-9.652a.824.824,0,0,1,1.038-.414l19.306,7.383a.823.823,0,0,1,.41,1.195l-5.778,9.621A.825.825,0,0,1,1210.066,371.471Zm-17.038-8.61,16.694,6.758,4.909-8.177-17.676-6.76Z" transform="translate(-1191.079 -352.818)" fill="#133854" stroke="#133854" stroke-width="1"/>
              </g>
              <g id="Groupe_124" data-name="Groupe 124" transform="translate(23.974 17.003)">
                <path id="Tracé_348" data-name="Tracé 348" d="M1211.91,371.471a.823.823,0,0,1-.717-.42l-5.445-9.647a.94.94,0,0,1-.081-.728.86.86,0,0,1,.46-.531l19.3-7.274a.823.823,0,0,1,1.038.423l4.474,9.654a.82.82,0,0,1,.018.651.834.834,0,0,1-.458.462l-18.282,7.351A.838.838,0,0,1,1211.91,371.471Zm-4.3-10.123,4.665,8.264,16.807-6.758-3.787-8.17Z" transform="translate(-1205.627 -352.818)" fill="#133854" stroke="#133854" stroke-width="1"/>
              </g>
              <g id="Groupe_125" data-name="Groupe 125" transform="translate(23.941 24.654)">
                <path id="Tracé_349" data-name="Tracé 349" d="M1206.653,378.313a.824.824,0,0,1-.824-.814l-.222-19.2a.826.826,0,0,1,.816-.834h.008a.825.825,0,0,1,.824.816l.222,19.2a.823.823,0,0,1-.814.834Z" transform="translate(-1205.607 -357.46)" fill="#133854" stroke="#133854" stroke-width="1"/>
              </g>
              <g id="Groupe_126" data-name="Groupe 126" transform="translate(0)">
                <path id="Tracé_350" data-name="Tracé 350" d="M1196.54,361.152a.823.823,0,0,1-.743-.468l-4.634-9.645a.815.815,0,0,1-.028-.654.828.828,0,0,1,.461-.466l18.16-7.356a.823.823,0,1,1,.618,1.526l-17.346,7.028,3.9,8.124,9.327-4.3a.824.824,0,0,1,.692,1.5l-10.064,4.644A.841.841,0,0,1,1196.54,361.152Z" transform="translate(-1191.079 -342.5)" fill="#133854" stroke="#133854" stroke-width="1"/>
              </g>
              <g id="Groupe_127" data-name="Groupe 127" transform="translate(29.434 0.002)">
                <path id="Tracé_351" data-name="Tracé 351" d="M1223.572,361.151a.84.84,0,0,1-.295-.054l-12.063-4.644a.825.825,0,0,1,.593-1.539l11.343,4.367,3.784-8.161-17.476-7.032a.824.824,0,0,1,.614-1.529l18.282,7.356a.834.834,0,0,1,.458.461.814.814,0,0,1-.02.651l-4.474,9.645A.823.823,0,0,1,1223.572,361.151Z" transform="translate(-1208.94 -342.501)" fill="#133854" stroke="#133854" stroke-width="1"/>
              </g>
            </g>
          </g>
        </g>
      </g>
      <g id="Groupe_132" data-name="Groupe 132" transform="translate(1172.35 355.437)">
        <path id="Tracé_352" data-name="Tracé 352" d="M1248.473,408.522h-40.445a1.072,1.072,0,0,1-1.027-.765l-16.445-55.265h-17.135a1.071,1.071,0,1,1,0-2.142h17.935a1.072,1.072,0,0,1,1.026.765l16.443,55.265h38.792l8.506-37.408h-3.6a1.071,1.071,0,1,1,0-2.142h4.944a1.072,1.072,0,0,1,1.045,1.308l-8.993,39.55A1.072,1.072,0,0,1,1248.473,408.522Z" transform="translate(-1172.35 -350.35)" fill="#133854" stroke="#133854" stroke-width="1"/>
      </g>
      <g id="Groupe_133" data-name="Groupe 133" transform="translate(1195.147 371.881)">
        <path id="Tracé_353" data-name="Tracé 353" d="M1195.076,362.47h-7.821a1.07,1.07,0,1,1,0-2.141h7.821a1.07,1.07,0,1,1,0,2.141Z" transform="translate(-1186.184 -360.329)" fill="#133854" stroke="#133854" stroke-width="1"/>
      </g>
      <g id="Groupe_134" data-name="Groupe 134" transform="translate(1209.428 415.586)">
        <path id="Tracé_354" data-name="Tracé 354" d="M1199.217,395.584a4.367,4.367,0,1,1,4.367-4.367A4.372,4.372,0,0,1,1199.217,395.584Zm0-6.592a2.225,2.225,0,1,0,2.225,2.225A2.227,2.227,0,0,0,1199.217,388.992Z" transform="translate(-1194.85 -386.85)" fill="#133854" stroke="#133854" stroke-width="1"/>
      </g>
      <g id="Groupe_135" data-name="Groupe 135" transform="translate(1237.443 415.586)">
        <path id="Tracé_355" data-name="Tracé 355" d="M1216.217,395.584a4.367,4.367,0,1,1,4.367-4.367A4.372,4.372,0,0,1,1216.217,395.584Zm0-6.592a2.225,2.225,0,1,0,2.225,2.225A2.227,2.227,0,0,0,1216.217,388.992Z" transform="translate(-1211.85 -386.85)" fill="#133854" stroke="#133854" stroke-width="1"/>
      </g>
    </g>
  </g>
</svg>
