<svg xmlns="http://www.w3.org/2000/svg" width="68.279" height="83.34" viewBox="0 0 68.279 83.34">
  <g id="royalties" transform="translate(-9108.45 -8285.71)">
    <path id="Tracé_526" data-name="Tracé 526" d="M9135.088,8302.95s-8.967-14.257,0-14.105,16.524,0,16.524,0,4.611.607,2.689,5.157-3.715,8.948-3.715,8.948Z" transform="translate(6 -3.134)" fill="#fe5002"/>
    <g id="Groupe_317" data-name="Groupe 317" transform="translate(7633.75 7928.963)">
      <g id="Groupe_317-2" data-name="Groupe 317" transform="translate(1475.25 377.82)">
        <path id="Tracé_517" data-name="Tracé 517" d="M1528.642,437.967h-37.93a15.479,15.479,0,0,1-15.461-15.461V411.245a35.035,35.035,0,0,1,35-35,32.22,32.22,0,0,1,32.184,32.184V424.18A13.8,13.8,0,0,1,1528.642,437.967Zm-18.4-60.079a33.4,33.4,0,0,0-33.357,33.357v11.261a13.839,13.839,0,0,0,13.823,13.822h37.93a12.162,12.162,0,0,0,12.149-12.149V408.434A30.58,30.58,0,0,0,1510.245,377.889Z" transform="translate(-1475.25 -376.25)" fill="#133854" stroke="#133854" stroke-width="1.1"/>
      </g>
      <g id="Groupe_318" data-name="Groupe 318" transform="translate(1500.374 371.266)">
        <path id="Tracé_518" data-name="Tracé 518" d="M1516.274,378.8h-1.639v-5.626a1.285,1.285,0,0,0-1.285-1.284h-12.177a1.285,1.285,0,0,0-1.285,1.284V378.8h-1.638v-5.626a2.925,2.925,0,0,1,2.923-2.922h12.177a2.926,2.926,0,0,1,2.923,2.922Z" transform="translate(-1498.25 -370.25)" fill="#133854" stroke="#133854" stroke-width="1.1"/>
      </g>
      <g id="Groupe_319" data-name="Groupe 319" transform="translate(1496.47 359.25)">
        <path id="Tracé_519" data-name="Tracé 519" d="M1499.292,373.117l-4.02-7.1a4.533,4.533,0,0,1,3.944-6.767h17.546a3.6,3.6,0,0,1,3.258,5.147l-4.1,8.667-1.48-.7,4.1-8.667a1.965,1.965,0,0,0-1.777-2.807h-17.546a2.9,2.9,0,0,0-2.52,4.321l4.021,7.1Z" transform="translate(-1494.677 -359.25)" fill="#133854" stroke="#133854" stroke-width="1.1"/>
      </g>
      <g id="Groupe_321" data-name="Groupe 321" transform="translate(1495.554 407.16)">
        <g id="Groupe_320" data-name="Groupe 320">
          <path id="Tracé_520" data-name="Tracé 520" d="M1517.625,404.258H1494.6a.387.387,0,0,1,0-.773h23.026a.387.387,0,1,1,0,.773Z" transform="translate(-1493.803 -403.075)" fill="#133854" stroke="#133854" stroke-width="1.1"/>
          <path id="Tracé_521" data-name="Tracé 521" d="M1517.66,404.7h-23.026a.8.8,0,0,1,0-1.593h23.026a.8.8,0,0,1,0,1.593Z" transform="translate(-1493.838 -403.11)" fill="#133854" stroke="#133854" stroke-width="1.1"/>
        </g>
      </g>
      <g id="Groupe_323" data-name="Groupe 323" transform="translate(1495.554 412.27)">
        <g id="Groupe_322" data-name="Groupe 322">
          <path id="Tracé_522" data-name="Tracé 522" d="M1517.625,408.936H1494.6a.387.387,0,0,1,0-.773h23.026a.387.387,0,1,1,0,.773Z" transform="translate(-1493.803 -407.753)" fill="#133854" stroke="#133854" stroke-width="1.1"/>
          <path id="Tracé_523" data-name="Tracé 523" d="M1517.66,409.381h-23.026a.8.8,0,0,1,0-1.593h23.026a.8.8,0,0,1,0,1.593Z" transform="translate(-1493.838 -407.788)" fill="#133854" stroke="#133854" stroke-width="1.1"/>
        </g>
      </g>
      <g id="Groupe_325" data-name="Groupe 325" transform="translate(1498.481 396.707)">
        <g id="Groupe_324" data-name="Groupe 324">
          <path id="Tracé_524" data-name="Tracé 524" d="M1514.454,420.711h-4.168a13.4,13.4,0,0,1,0-26.8h4.168a.387.387,0,1,1,0,.773h-4.168a12.625,12.625,0,0,0,0,25.249h4.168a.387.387,0,1,1,0,.773Z" transform="translate(-1496.482 -393.506)" fill="#133854" stroke="#133854" stroke-width="1.1"/>
          <path id="Tracé_525" data-name="Tracé 525" d="M1514.488,421.155h-4.168a13.807,13.807,0,0,1,0-27.614h4.168a.8.8,0,0,1,0,1.593h-4.168a12.215,12.215,0,0,0,0,24.429h4.168a.8.8,0,0,1,0,1.593Z" transform="translate(-1496.517 -393.541)" fill="#133854" stroke="#133854" stroke-width="1.1"/>
        </g>
      </g>
    </g>
  </g>
</svg>
