<svg xmlns="http://www.w3.org/2000/svg" width="85" height="75.83" viewBox="0 0 85 75.83">
  <g id="sav" transform="translate(-5852 -8790.5)">
    <rect id="Rectangle_78" data-name="Rectangle 78" width="15" height="23" transform="translate(5852 8821)" fill="#fe5002"/>
    <rect id="Rectangle_79" data-name="Rectangle 79" width="15" height="14" transform="translate(5922 8838)" fill="#fe5002"/>
    <g id="Groupe_183" data-name="Groupe 183" transform="translate(4595.644 8318.809)">
      <g id="Groupe_183-2" data-name="Groupe 183">
        <path id="Tracé_390" data-name="Tracé 390" d="M1272.4,529.5h-7.1a3.946,3.946,0,0,1-3.942-3.941v-13.84a3.947,3.947,0,0,1,3.942-3.942h7.1a3.947,3.947,0,0,1,3.942,3.942v13.84A3.946,3.946,0,0,1,1272.4,529.5Zm-7.1-20.223a2.444,2.444,0,0,0-2.442,2.442v13.84A2.444,2.444,0,0,0,1265.3,528h7.1a2.444,2.444,0,0,0,2.442-2.441v-13.84a2.444,2.444,0,0,0-2.442-2.442Z" fill="#133854" stroke="#133854" stroke-width="1"/>
      </g>
      <g id="Groupe_184" data-name="Groupe 184">
        <path id="Tracé_391" data-name="Tracé 391" d="M1277.739,532.866a2.905,2.905,0,0,1-2.9-2.9V507.979a2.9,2.9,0,1,1,5.8,0v21.986A2.905,2.905,0,0,1,1277.739,532.866Zm0-26.289a1.4,1.4,0,0,0-1.4,1.4v21.986a1.4,1.4,0,0,0,2.8,0V507.979A1.4,1.4,0,0,0,1277.739,506.577Z" fill="#133854" stroke="#133854" stroke-width="1"/>
      </g>
      <g id="Groupe_185" data-name="Groupe 185">
        <path id="Tracé_392" data-name="Tracé 392" d="M1333.809,529.915h-7.1a3.946,3.946,0,0,1-3.941-3.941V512.135a3.946,3.946,0,0,1,3.941-3.942h7.1a3.947,3.947,0,0,1,3.941,3.942v13.839A3.947,3.947,0,0,1,1333.809,529.915Zm-7.1-20.222a2.443,2.443,0,0,0-2.441,2.442v13.839a2.443,2.443,0,0,0,2.441,2.441h7.1a2.444,2.444,0,0,0,2.441-2.441V512.135a2.444,2.444,0,0,0-2.441-2.442Z" fill="#133854" stroke="#133854" stroke-width="1"/>
      </g>
      <g id="Groupe_186" data-name="Groupe 186">
        <path id="Tracé_393" data-name="Tracé 393" d="M1321.367,533.285a2.9,2.9,0,0,1-2.9-2.9V508.4a2.9,2.9,0,0,1,5.8,0v21.987A2.9,2.9,0,0,1,1321.367,533.285Zm0-26.288a1.4,1.4,0,0,0-1.4,1.4v21.987a1.4,1.4,0,0,0,2.8,0V508.4A1.4,1.4,0,0,0,1321.367,507Z" fill="#133854" stroke="#133854" stroke-width="1"/>
      </g>
      <g id="Groupe_187" data-name="Groupe 187">
        <path id="Tracé_394" data-name="Tracé 394" d="M1330.116,508.623l-1.486-.2c.021-.164,2.071-16.517-7.019-26.646-5.015-5.59-12.491-8.318-22.265-8.073-10.376.247-18.222,3.439-23.319,9.486-8.534,10.127-6.461,24.971-6.438,25.12l-1.485.218c-.093-.634-2.189-15.666,6.777-26.3,5.386-6.391,13.6-9.762,24.43-10.02,10.187-.244,18.1,2.643,23.423,8.578C1332.285,491.436,1330.209,507.926,1330.116,508.623Z" fill="#133854" stroke="#133854" stroke-width="1"/>
      </g>
      <g id="Groupe_188" data-name="Groupe 188">
        <path id="Tracé_395" data-name="Tracé 395" d="M1323.2,544.956h-7.831v-1.5h7.831a6.314,6.314,0,0,0,6.307-6.306v-7.985h1.5v7.985A7.815,7.815,0,0,1,1323.2,544.956Z" fill="#133854" stroke="#133854" stroke-width="1"/>
      </g>
      <g id="Groupe_189" data-name="Groupe 189">
        <path id="Tracé_396" data-name="Tracé 396" d="M1312.741,547.021h-2.855a3.369,3.369,0,0,1-3.366-3.367V543.5a3.37,3.37,0,0,1,3.366-3.367h2.855a3.371,3.371,0,0,1,3.367,3.367v.158A3.37,3.37,0,0,1,1312.741,547.021Zm-2.855-5.392a1.868,1.868,0,0,0-1.866,1.867v.158a1.868,1.868,0,0,0,1.866,1.867h2.855a1.868,1.868,0,0,0,1.867-1.867V543.5a1.869,1.869,0,0,0-1.867-1.867Z" fill="#133854" stroke="#133854" stroke-width="1"/>
      </g>
    </g>
  </g>
</svg>
