<svg xmlns="http://www.w3.org/2000/svg" width="71.55" height="101.925" viewBox="0 0 71.55 101.925">
  <g id="scannette" transform="translate(-9658.45 -8266.735)">
    <circle id="Ellipse_27" data-name="Ellipse 27" cx="9" cy="9" r="9" transform="translate(9712 8299)" fill="#fe5002"/>
    <rect id="Rectangle_84" data-name="Rectangle 84" width="19" height="5" transform="translate(9678 8359)" fill="#fe5002"/>
    <rect id="Rectangle_85" data-name="Rectangle 85" width="19" height="5" transform="translate(9683 8271)" fill="#fe5002"/>
    <g id="Groupe_326" data-name="Groupe 326" transform="translate(8056 7965.138)">
      <path id="Tracé_527" data-name="Tracé 527" d="M1615.126,307.084a2.506,2.506,0,1,0,2.511,2.507A2.509,2.509,0,0,0,1615.126,307.084Zm0,3.354a.848.848,0,1,1,.854-.848A.849.849,0,0,1,1615.126,310.438Z" transform="translate(2.641 1.355)" fill="#133854" stroke="#133854" stroke-width="1.1"/>
      <path id="Tracé_528" data-name="Tracé 528" d="M1634.118,373.743H1621.4a.829.829,0,0,0,0,1.658h12.721a.829.829,0,1,0,0-1.658Z" transform="translate(4.823 19.652)" fill="#133854" stroke="#133854" stroke-width="1.1"/>
      <path id="Tracé_529" data-name="Tracé 529" d="M1634.118,308.4H1621.4a.828.828,0,0,0,0,1.657h12.721a.828.828,0,1,0,0-1.657Z" transform="translate(4.823 1.717)" fill="#133854" stroke="#133854" stroke-width="1.1"/>
      <path id="Tracé_530" data-name="Tracé 530" d="M1669.166,325.856h-7.859v-6.311a.822.822,0,0,0,.319-.644v-8.059a8.59,8.59,0,0,0-8.459-8.7H1611.45a8.585,8.585,0,0,0-8.45,8.7V318.9a.823.823,0,0,0,.319.644v66.118a.823.823,0,0,0-.319.644v7.969a8.585,8.585,0,0,0,8.45,8.7h41.718a8.59,8.59,0,0,0,8.459-8.7v-7.969a.822.822,0,0,0-.319-.644v-7.6l.14.278a.745.745,0,0,0,.668.409h.157a.743.743,0,0,0,.667-.41l1.557-3.07,1.556,3.068a.748.748,0,0,0,.668.413h.184a.745.745,0,0,0,.667-.41l1.653-3.269,1.657,3.268a.741.741,0,0,0,.667.412h.378a.749.749,0,0,0,.748-.748V329.751A3.72,3.72,0,0,0,1669.166,325.856Zm-10.112,47.089-1.858,3.674-1.865-3.677a.776.776,0,0,0-1.333,0l-2.028,4-2.033-4a.734.734,0,0,0-.664-.391h0a.736.736,0,0,0-.668.391l-1.715,3.391-1.719-3.389a.774.774,0,0,0-1.334,0l-1.777,3.5-1.775-3.506a.738.738,0,0,0-.668-.39h0a.735.735,0,0,0-.665.391l-1.776,3.506-1.778-3.506a.777.777,0,0,0-1.334,0l-1.863,3.673-1.86-3.672a.776.776,0,0,0-1.334,0l-1.4,2.768V330.539a2.975,2.975,0,0,1,2.7-3.186h38.867a2.233,2.233,0,0,1,2.011,2.4v45.864l-1.287-2.54a.777.777,0,0,0-1.333,0l-1.746,3.449-1.648-3.247a.776.776,0,0,0-1.333,0l-1.636,3.226-1.8-3.558A.776.776,0,0,0,1659.055,372.945ZM1630.3,325.856a4.462,4.462,0,0,0-4.192,4.682V378a.749.749,0,0,0,.748.748h.428a.742.742,0,0,0,.667-.41l1.722-3.4,1.72,3.4a.746.746,0,0,0,.668.409h.275a.747.747,0,0,0,.667-.409l1.727-3.4,1.726,3.4a.746.746,0,0,0,.665.408h.108a.74.74,0,0,0,.667-.41l1.721-3.4,1.723,3.4a.745.745,0,0,0,.667.409h.106a.745.745,0,0,0,.668-.41l1.723-3.4,1.722,3.394a.776.776,0,0,0,1.333,0l1.715-3.393,1.724,3.4a.742.742,0,0,0,.668.412h.612a.744.744,0,0,0,.668-.41l1.72-3.4,1.727,3.4a.743.743,0,0,0,.667.409h.279a.744.744,0,0,0,.667-.41l1.392-2.753v9.893H1605.23V320.121H1659.4v5.735Zm-25.686-15.013a6.948,6.948,0,0,1,6.836-7.039h41.718a6.953,6.953,0,0,1,6.845,7.039v7.23h-55.4Zm48.554,90.471H1611.45a6.947,6.947,0,0,1-6.836-7.038v-6.607h55.4v6.607A6.952,6.952,0,0,1,1653.168,401.314Zm6.491-26.247.065-.13.065.13Z" transform="translate(0 0)" fill="#133854" stroke="#133854" stroke-width="1.1"/>
      <path id="Tracé_531" data-name="Tracé 531" d="M1658.753,338.321a7.956,7.956,0,1,0-7.953,7.953A7.966,7.966,0,0,0,1658.753,338.321Zm-14.416,0a6.46,6.46,0,1,1,6.463,6.457A6.472,6.472,0,0,1,1644.337,338.321Z" transform="translate(10.936 7.744)" fill="#133854" stroke="#133854" stroke-width="1.1"/>
      <path id="Tracé_532" data-name="Tracé 532" d="M1642.3,331.532H1625.17a.748.748,0,0,0,0,1.5H1642.3a.748.748,0,0,0,0-1.5Z" transform="translate(5.88 8.066)" fill="#133854" stroke="#133854" stroke-width="1.1"/>
      <path id="Tracé_533" data-name="Tracé 533" d="M1642.3,336.224H1625.17a.747.747,0,1,0,0,1.495H1642.3a.747.747,0,1,0,0-1.495Z" transform="translate(5.88 9.354)" fill="#133854" stroke="#133854" stroke-width="1.1"/>
      <path id="Tracé_534" data-name="Tracé 534" d="M1642.3,340.917H1625.17a.747.747,0,1,0,0,1.495H1642.3a.747.747,0,1,0,0-1.495Z" transform="translate(5.88 10.642)" fill="#133854" stroke="#133854" stroke-width="1.1"/>
      <path id="Tracé_535" data-name="Tracé 535" d="M1642.3,345.607H1625.17a.748.748,0,0,0,0,1.5H1642.3a.748.748,0,0,0,0-1.5Z" transform="translate(5.88 11.929)" fill="#133854" stroke="#133854" stroke-width="1.1"/>
      <path id="Tracé_536" data-name="Tracé 536" d="M1642.3,350.294H1625.17a.748.748,0,0,0,0,1.5H1642.3a.748.748,0,0,0,0-1.5Z" transform="translate(5.88 13.216)" fill="#133854" stroke="#133854" stroke-width="1.1"/>
    </g>
  </g>
</svg>
