<svg xmlns="http://www.w3.org/2000/svg" xmlns:xlink="http://www.w3.org/1999/xlink" width="46.901" height="47.604" viewBox="0 0 46.901 47.604">
  <defs>
    <clipPath id="clip-path">
      <rect id="Rectangle_141" data-name="Rectangle 141" width="43" height="44" transform="translate(939.399 450.54)" fill="#133854" stroke="#707070" stroke-width="1"/>
    </clipPath>
  </defs>
  <g id="send_image" transform="translate(-956 -461)">
    <path id="Tracé_673" data-name="Tracé 673" d="M7275.9,13580.7l-10.611,39.905-10.841-16.146-15.685-6.228Z" transform="translate(-6273 -13112)" fill="#fe5002"/>
    <g id="Groupe_de_masques_2" data-name="Groupe de masques 2" transform="translate(16.601 10.46)" clip-path="url(#clip-path)">
      <path id="__TEMP__SVG__" d="M43.694,2.312a1.822,1.822,0,0,0-1.934-.25L4.21,19.689V23.1l15.772,6.309L30.1,44.972h3.411l10.779-40.8A1.822,1.822,0,0,0,43.7,2.314ZM31.4,41.719l-8.7-13.378L36.088,13.685,33.97,11.752,20.485,26.521l-13-5.2L40.94,5.615Z" transform="translate(936.621 449.108)" fill="#133854"/>
    </g>
  </g>
</svg>
