<svg xmlns="http://www.w3.org/2000/svg" width="92.37" height="102.521" viewBox="0 0 92.37 102.521">
  <g id="technique_industrie" transform="translate(-6940.45 -8768.449)">
    <circle id="Ellipse_20" data-name="Ellipse 20" cx="13.5" cy="13.5" r="13.5" transform="translate(6957 8820)" fill="#fe5002"/>
    <circle id="Ellipse_21" data-name="Ellipse 21" cx="8.5" cy="8.5" r="8.5" transform="translate(7005 8782)" fill="#fe5002"/>
    <g id="Groupe_241" data-name="Groupe 241" transform="translate(5813.578 8085.556)">
      <g id="Groupe_247" data-name="Groupe 247" transform="translate(1127.422 683.443)">
        <g id="Groupe_242" data-name="Groupe 242" transform="translate(0 35.081)">
          <g id="Groupe_241-2" data-name="Groupe 241">
            <path id="Tracé_443" data-name="Tracé 443" d="M1162.916,777.946h-4.641a.809.809,0,0,1-.8-.689l-1.259-8.366a23.851,23.851,0,0,1-3.889-1.034l-5.272,6.609a.81.81,0,0,1-1.036.2L1142,772.349a.81.81,0,0,1-.349-1l3.1-7.879a24.181,24.181,0,0,1-2.84-2.841l-7.883,3.089a.807.807,0,0,1-1-.349l-2.324-4.019a.808.808,0,0,1,.2-1.039l6.62-5.264a24.526,24.526,0,0,1-1.041-3.885l-8.367-1.259a.809.809,0,0,1-.69-.8v-4.655a.808.808,0,0,1,.691-.8l8.366-1.249a24.5,24.5,0,0,1,1.041-3.885l-6.621-5.274a.808.808,0,0,1-.2-1.039l2.324-4.018a.807.807,0,0,1,1-.349l7.879,3.1a23.392,23.392,0,0,1,2.841-2.844l-3.1-7.88a.81.81,0,0,1,.347-1l4.021-2.323a.81.81,0,0,1,1.039.2l5.271,6.622a24.3,24.3,0,0,1,3.889-1.044l1.259-8.369a.81.81,0,0,1,.8-.69h4.641a.811.811,0,0,1,.8.69l1.258,8.369a24.156,24.156,0,0,1,3.888,1.044l5.264-6.621a.806.806,0,0,1,1.039-.2l4.02,2.323a.811.811,0,0,1,.349,1l-3.092,7.883a23.59,23.59,0,0,1,2.846,2.843l7.876-3.1a.807.807,0,0,1,1,.35l2.314,4.018a.809.809,0,0,1-.2,1.036l-6.612,5.277a25.114,25.114,0,0,1,1.045,3.885l8.355,1.259a.812.812,0,0,1,.69.8V747.1a.81.81,0,0,1-.69.8l-8.356,1.258a25,25,0,0,1-1.044,3.885l6.612,5.265a.811.811,0,0,1,.2,1.038l-2.314,4.018a.812.812,0,0,1-1,.35l-7.879-3.089a24.732,24.732,0,0,1-2.846,2.84l3.093,7.881a.811.811,0,0,1-.35,1l-4.02,2.316a.811.811,0,0,1-1.038-.2l-5.264-6.609a23.8,23.8,0,0,1-3.888,1.034l-1.258,8.366A.81.81,0,0,1,1162.916,777.946Zm-3.944-1.621h3.246l1.243-8.257a.807.807,0,0,1,.68-.68,22.245,22.245,0,0,0,4.7-1.249.814.814,0,0,1,.927.25l5.2,6.524,2.812-1.618-3.051-7.778a.811.811,0,0,1,.243-.924,22.962,22.962,0,0,0,3.442-3.438.813.813,0,0,1,.927-.247l7.776,3.049,1.619-2.81-6.525-5.2a.816.816,0,0,1-.252-.923,23.408,23.408,0,0,0,1.264-4.7.809.809,0,0,1,.679-.674l8.245-1.242v-3.249l-8.245-1.245a.807.807,0,0,1-.68-.674,23.331,23.331,0,0,0-1.263-4.7.81.81,0,0,1,.252-.921l6.526-5.207-1.619-2.812-7.776,3.059a.8.8,0,0,1-.929-.248,22.108,22.108,0,0,0-3.435-3.433.806.806,0,0,1-.248-.927l3.051-7.782-2.812-1.626-5.2,6.535a.81.81,0,0,1-.927.25,22.645,22.645,0,0,0-4.7-1.262.81.81,0,0,1-.675-.68l-1.243-8.259h-3.246l-1.243,8.259a.811.811,0,0,1-.675.68,22.664,22.664,0,0,0-4.7,1.262.808.808,0,0,1-.927-.249l-5.2-6.537-2.814,1.627,3.059,7.78a.811.811,0,0,1-.249.931,21.636,21.636,0,0,0-3.429,3.431.8.8,0,0,1-.929.248l-7.781-3.061-1.627,2.813,6.536,5.206a.808.808,0,0,1,.249.927,22.843,22.843,0,0,0-1.262,4.7.8.8,0,0,1-.679.673l-8.256,1.234v3.259l8.258,1.242a.808.808,0,0,1,.678.674,22.9,22.9,0,0,0,1.262,4.7.808.808,0,0,1-.25.928l-6.534,5.2,1.627,2.811,7.78-3.051a.813.813,0,0,1,.927.247,22.455,22.455,0,0,0,3.436,3.437.811.811,0,0,1,.244.927l-3.058,7.777,2.811,1.62,5.2-6.525a.81.81,0,0,1,.926-.25,22.235,22.235,0,0,0,4.7,1.249.809.809,0,0,1,.68.68Zm1.619-18.853a12.691,12.691,0,1,1,12.692-12.7A12.705,12.705,0,0,1,1160.592,757.472Zm0-23.761a11.07,11.07,0,1,0,11.072,11.065A11.077,11.077,0,0,0,1160.592,733.711Z" transform="translate(-1127.422 -711.605)" fill="#133854" stroke="#133854" stroke-width="1.1"/>
          </g>
        </g>
        <g id="Groupe_244" data-name="Groupe 244" transform="translate(47.375 2.876)">
          <g id="Groupe_243" data-name="Groupe 243">
            <path id="Tracé_444" data-name="Tracé 444" d="M1188.924,729.659h-3.043a.809.809,0,0,1-.8-.69l-.791-5.269a16.629,16.629,0,0,1-2.195-.587l-3.311,4.168a.81.81,0,0,1-1.038.2l-2.635-1.52a.811.811,0,0,1-.349-1l1.951-4.956a17.1,17.1,0,0,1-1.6-1.606l-4.969,1.95a.807.807,0,0,1-1-.351l-1.51-2.631a.807.807,0,0,1,.2-1.035l4.162-3.317a16.414,16.414,0,0,1-.589-2.2l-5.259-.792a.809.809,0,0,1-.69-.8v-3.029a.808.808,0,0,1,.69-.8l5.258-.792a16.264,16.264,0,0,1,.589-2.2l-4.161-3.317a.81.81,0,0,1-.2-1.036l1.51-2.622a.809.809,0,0,1,1-.351l4.968,1.949a16.5,16.5,0,0,1,1.6-1.613l-1.951-4.958a.809.809,0,0,1,.349-1l2.635-1.52a.811.811,0,0,1,1.038.2l3.311,4.167a16.547,16.547,0,0,1,2.195-.585l.791-5.269a.809.809,0,0,1,.8-.69h3.043a.807.807,0,0,1,.8.69l.79,5.269a16.526,16.526,0,0,1,2.2.585l3.324-4.168a.812.812,0,0,1,1.039-.2l2.621,1.52a.809.809,0,0,1,.347,1l-1.951,4.958a16.671,16.671,0,0,1,1.6,1.613l4.959-1.949a.812.812,0,0,1,1,.35l1.517,2.622a.81.81,0,0,1-.2,1.039l-4.163,3.315a15.854,15.854,0,0,1,.592,2.2l5.259.792a.808.808,0,0,1,.689.8v3.029a.809.809,0,0,1-.689.8l-5.26.792a15.828,15.828,0,0,1-.592,2.2l4.164,3.315a.811.811,0,0,1,.2,1.04l-1.517,2.621a.813.813,0,0,1-1,.349l-4.962-1.942a16.951,16.951,0,0,1-1.6,1.607l1.951,4.956a.81.81,0,0,1-.347,1l-2.621,1.52a.812.812,0,0,1-1.039-.2l-3.324-4.169a16.714,16.714,0,0,1-2.2.587l-.79,5.269A.807.807,0,0,1,1188.924,729.659Zm-2.346-1.621h1.648l.772-5.156a.807.807,0,0,1,.674-.678,15.176,15.176,0,0,0,3.021-.807.812.812,0,0,1,.921.252l3.251,4.077,1.415-.82-1.908-4.851a.808.808,0,0,1,.244-.926,15.439,15.439,0,0,0,2.207-2.212.81.81,0,0,1,.922-.24l4.852,1.9.82-1.415-4.075-3.246a.809.809,0,0,1-.249-.931,14.387,14.387,0,0,0,.812-3.013.807.807,0,0,1,.679-.674l5.146-.775v-1.634l-5.146-.775a.807.807,0,0,1-.679-.674,14.253,14.253,0,0,0-.812-3.012.81.81,0,0,1,.249-.932l4.075-3.246-.818-1.416-4.853,1.907a.815.815,0,0,1-.924-.244,15.145,15.145,0,0,0-2.2-2.216.808.808,0,0,1-.244-.925l1.908-4.851-1.415-.82-3.251,4.076a.815.815,0,0,1-.921.252,15.087,15.087,0,0,0-3.021-.806.807.807,0,0,1-.674-.679l-.772-5.155h-1.648l-.774,5.155a.808.808,0,0,1-.674.679,14.994,14.994,0,0,0-3.018.806.819.819,0,0,1-.923-.253l-3.239-4.076-1.426.822,1.909,4.849a.81.81,0,0,1-.243.925,15.024,15.024,0,0,0-2.206,2.215.818.818,0,0,1-.924.245l-4.859-1.907-.816,1.415,4.075,3.249a.81.81,0,0,1,.249.928,14.352,14.352,0,0,0-.808,3.015.809.809,0,0,1-.679.674l-5.146.775v1.634l5.146.775a.809.809,0,0,1,.679.674,14.49,14.49,0,0,0,.808,3.016.807.807,0,0,1-.249.927l-4.075,3.249.817,1.422,4.858-1.907a.811.811,0,0,1,.922.242,15.373,15.373,0,0,0,2.208,2.211.81.81,0,0,1,.243.926l-1.909,4.849,1.426.822,3.239-4.077a.82.82,0,0,1,.922-.253,15.2,15.2,0,0,0,3.019.807.808.808,0,0,1,.674.678Zm.823-11.764a8.569,8.569,0,1,1,8.573-8.565A8.579,8.579,0,0,1,1187.4,716.275Zm0-15.517a6.948,6.948,0,1,0,6.952,6.952A6.959,6.959,0,0,0,1187.4,700.757Z" transform="translate(-1165.454 -685.752)" fill="#133854" stroke="#133854" stroke-width="1.1"/>
          </g>
        </g>
        <g id="Groupe_246" data-name="Groupe 246" transform="translate(10.659)">
          <g id="Groupe_245" data-name="Groupe 245">
            <path id="Tracé_445" data-name="Tracé 445" d="M1153.975,717.112h-2.333a.62.62,0,0,1-.613-.529l-.607-4.041a12.555,12.555,0,0,1-1.683-.45l-2.539,3.2a.622.622,0,0,1-.8.152l-2.021-1.165a.621.621,0,0,1-.268-.766l1.5-3.8a13.185,13.185,0,0,1-1.23-1.231l-3.81,1.495a.619.619,0,0,1-.765-.269l-1.157-2.018a.617.617,0,0,1,.151-.793l3.191-2.544a12.4,12.4,0,0,1-.452-1.688l-4.034-.608a.619.619,0,0,1-.528-.613v-2.323a.622.622,0,0,1,.528-.614l4.034-.607a12.334,12.334,0,0,1,.451-1.688l-3.19-2.544a.619.619,0,0,1-.151-.795l1.157-2.01a.619.619,0,0,1,.765-.269l3.809,1.495a12.53,12.53,0,0,1,1.231-1.237l-1.5-3.8a.621.621,0,0,1,.268-.766l2.021-1.165a.623.623,0,0,1,.8.152l2.539,3.2a12.485,12.485,0,0,1,1.683-.448l.607-4.041a.62.62,0,0,1,.613-.529h2.333a.622.622,0,0,1,.614.529l.605,4.041a12.546,12.546,0,0,1,1.684.448l2.549-3.2a.624.624,0,0,1,.8-.149l2.009,1.165a.622.622,0,0,1,.267.765l-1.5,3.8a12.677,12.677,0,0,1,1.231,1.237l3.8-1.495a.622.622,0,0,1,.765.268l1.163,2.01a.621.621,0,0,1-.15.8l-3.193,2.542a12.182,12.182,0,0,1,.453,1.688l4.032.607a.622.622,0,0,1,.529.614v2.323a.619.619,0,0,1-.529.613l-4.033.608a11.985,11.985,0,0,1-.453,1.688l3.194,2.542a.621.621,0,0,1,.15.8L1166.8,709.7a.624.624,0,0,1-.765.267l-3.8-1.489a13.052,13.052,0,0,1-1.229,1.232l1.5,3.8a.622.622,0,0,1-.267.765l-2.009,1.165a.624.624,0,0,1-.8-.15l-2.549-3.2a12.621,12.621,0,0,1-1.684.45l-.605,4.041A.621.621,0,0,1,1153.975,717.112Zm-1.8-1.243h1.264l.593-3.952a.62.62,0,0,1,.516-.521,11.614,11.614,0,0,0,2.317-.619.623.623,0,0,1,.706.193l2.493,3.127,1.085-.629-1.464-3.72a.619.619,0,0,1,.187-.709,11.847,11.847,0,0,0,1.693-1.7.62.62,0,0,1,.708-.184l3.72,1.456.629-1.086-3.125-2.489a.621.621,0,0,1-.189-.714,11.038,11.038,0,0,0,.622-2.309.62.62,0,0,1,.521-.517l3.946-.594V699.65l-3.946-.594a.62.62,0,0,1-.521-.517,10.957,10.957,0,0,0-.622-2.309.621.621,0,0,1,.189-.714l3.125-2.489-.628-1.086-3.721,1.461a.625.625,0,0,1-.709-.186,11.562,11.562,0,0,0-1.692-1.7.62.62,0,0,1-.187-.71l1.464-3.718-1.085-.629-2.493,3.125a.625.625,0,0,1-.706.193,11.534,11.534,0,0,0-2.317-.618.62.62,0,0,1-.516-.521l-.593-3.954h-1.264l-.593,3.954a.62.62,0,0,1-.517.521,11.472,11.472,0,0,0-2.314.618.625.625,0,0,1-.708-.194l-2.483-3.125-1.095.632,1.464,3.717a.618.618,0,0,1-.187.71,11.538,11.538,0,0,0-1.69,1.7.626.626,0,0,1-.709.187l-3.727-1.461-.625,1.085,3.124,2.49a.623.623,0,0,1,.192.712,11,11,0,0,0-.62,2.311.62.62,0,0,1-.521.517l-3.946.594V700.9l3.946.594a.62.62,0,0,1,.521.517,11.117,11.117,0,0,0,.62,2.312.621.621,0,0,1-.192.711l-3.124,2.49.627,1.091,3.726-1.462a.618.618,0,0,1,.706.186,11.9,11.9,0,0,0,1.693,1.7.617.617,0,0,1,.187.709l-1.464,3.718,1.095.632,2.483-3.127a.63.63,0,0,1,.708-.194,11.548,11.548,0,0,0,2.314.619.62.62,0,0,1,.517.521Zm.631-9.021a6.57,6.57,0,1,1,6.573-6.567A6.577,6.577,0,0,1,1152.808,706.848Zm0-11.9a5.328,5.328,0,1,0,5.332,5.332A5.337,5.337,0,0,0,1152.808,694.949Z" transform="translate(-1135.979 -683.443)" fill="#133854" stroke="#133854" stroke-width="1.1"/>
          </g>
        </g>
      </g>
    </g>
  </g>
</svg>
