<svg xmlns="http://www.w3.org/2000/svg" width="82.28" height="89.416" viewBox="0 0 82.28 89.416">
  <g id="traitement_differe" transform="translate(-6406.5 -8290.793)">
    <path id="Tracé_427" data-name="Tracé 427" d="M6421.163,8293.793v8.033h21.755l4.351,3.012H6487.6v-11.045Z" transform="translate(-1 -3)" fill="#fe5002"/>
    <path id="Tracé_428" data-name="Tracé 428" d="M6421.163,8293.793v8.033h21.755l4.351,3.012H6487.6v-11.045Z" transform="translate(-14 21)" fill="#fe5002"/>
    <g id="Groupe_190" data-name="Groupe 190" transform="translate(5388.28 8110.817)">
      <g id="Groupe_212" data-name="Groupe 212">
        <g id="Groupe_211" data-name="Groupe 211">
          <g id="Groupe_190-2" data-name="Groupe 190">
            <path id="Tracé_397" data-name="Tracé 397" d="M1085.771,257.747h-15.577a.556.556,0,1,1,0-1.111h15.021V208.077h-65.384v48.559h15.014a.556.556,0,0,1,0,1.111h-15.569a.555.555,0,0,1-.556-.555V207.521a.555.555,0,0,1,.556-.555h66.495a.555.555,0,0,1,.556.555v49.671A.555.555,0,0,1,1085.771,257.747Z" fill="#133854" stroke="#133854" stroke-width="1"/>
          </g>
          <g id="Groupe_191" data-name="Groupe 191">
            <path id="Tracé_398" data-name="Tracé 398" d="M1085.314,219.059h-39.978a.56.56,0,0,1-.3-.089l-4.844-3.122h-20.347a.556.556,0,1,1,0-1.111h20.511a.555.555,0,0,1,.3.089l4.844,3.121h39.815a.556.556,0,0,1,0,1.112Z" fill="#133854" stroke="#133854" stroke-width="1"/>
          </g>
          <g id="Groupe_192" data-name="Groupe 192">
            <path id="Tracé_399" data-name="Tracé 399" d="M1075.452,213.9h-2.205a.556.556,0,0,1,0-1.112h2.205a.556.556,0,0,1,0,1.112Z" fill="#133854" stroke="#133854" stroke-width="1"/>
          </g>
          <g id="Groupe_193" data-name="Groupe 193">
            <path id="Tracé_400" data-name="Tracé 400" d="M1079.135,213.9h-2.2a.556.556,0,0,1,0-1.112h2.2a.556.556,0,1,1,0,1.112Z" fill="#133854" stroke="#133854" stroke-width="1"/>
          </g>
          <g id="Groupe_194" data-name="Groupe 194">
            <path id="Tracé_401" data-name="Tracé 401" d="M1082.818,213.9h-2.194a.556.556,0,1,1,0-1.112h2.194a.556.556,0,1,1,0,1.112Z" fill="#133854" stroke="#133854" stroke-width="1"/>
          </g>
          <g id="Groupe_196" data-name="Groupe 196">
            <g id="Groupe_195" data-name="Groupe 195">
              <path id="Tracé_402" data-name="Tracé 402" d="M1053.927,268.892h-2.806a.555.555,0,0,1-.549-.473l-.758-5.014a14.578,14.578,0,0,1-2.272-.606l-3.156,3.965a.558.558,0,0,1-.712.135l-2.436-1.4a.556.556,0,0,1-.24-.685l1.857-4.72a15.235,15.235,0,0,1-1.664-1.668l-4.722,1.86a.554.554,0,0,1-.685-.24l-1.4-2.436a.556.556,0,0,1,.137-.712l3.962-3.151a15.139,15.139,0,0,1-.6-2.276l-5.015-.759a.556.556,0,0,1-.473-.549v-1.4a.555.555,0,1,1,1.111,0v.926l4.942.747a.556.556,0,0,1,.466.466,13.872,13.872,0,0,0,.753,2.837.554.554,0,0,1-.174.632l-3.9,3.1.926,1.608,4.649-1.831a.549.549,0,0,1,.634.166,14.022,14.022,0,0,0,2.077,2.078.555.555,0,0,1,.168.637l-1.829,4.649,1.607.925,3.109-3.9a.554.554,0,0,1,.634-.171,13.52,13.52,0,0,0,2.829.753.556.556,0,0,1,.466.467l.747,4.939h1.849l.747-4.939a.556.556,0,0,1,.465-.467,13.526,13.526,0,0,0,2.826-.753.56.56,0,0,1,.635.171l3.111,3.9,1.606-.925-1.829-4.649a.555.555,0,0,1,.168-.637,14.127,14.127,0,0,0,2.078-2.079.55.55,0,0,1,.635-.165l4.649,1.831.924-1.608-3.911-3.11a.555.555,0,0,1-.171-.638,12.981,12.981,0,0,0,.759-2.822.557.557,0,0,1,.466-.467l4.942-.747v-.926a.556.556,0,1,1,1.111,0v1.4a.556.556,0,0,1-.472.549l-5.016.759a13.941,13.941,0,0,1-.611,2.27l3.969,3.157a.557.557,0,0,1,.136.712l-1.4,2.436a.553.553,0,0,1-.685.24l-4.722-1.86a15.241,15.241,0,0,1-1.665,1.668l1.856,4.72a.555.555,0,0,1-.239.685l-2.434,1.4a.556.556,0,0,1-.712-.135L1057.5,262.8a14.612,14.612,0,0,1-2.269.606l-.758,5.014A.556.556,0,0,1,1053.927,268.892Zm-1.405-12.393a7.752,7.752,0,0,1-7.742-7.744.556.556,0,1,1,1.112,0,6.63,6.63,0,1,0,13.261,0,.556.556,0,0,1,1.112,0A7.752,7.752,0,0,1,1052.522,256.5Z" fill="#133854" stroke="#133854" stroke-width="1"/>
            </g>
          </g>
          <g id="Groupe_197" data-name="Groupe 197">
            <path id="Tracé_403" data-name="Tracé 403" d="M1078.2,249.311h-51.347a.556.556,0,1,1,0-1.112H1078.2a.556.556,0,0,1,0,1.112Z" fill="#133854" stroke="#133854" stroke-width="1"/>
          </g>
          <g id="Groupe_198" data-name="Groupe 198">
            <path id="Tracé_404" data-name="Tracé 404" d="M1062.206,225.764h-27.155a.556.556,0,1,1,0-1.112h27.155a.556.556,0,0,1,0,1.112Z" fill="#133854" stroke="#133854" stroke-width="1"/>
          </g>
          <g id="Groupe_199" data-name="Groupe 199">
            <path id="Tracé_405" data-name="Tracé 405" d="M1069.985,225.764h-4.415a.556.556,0,0,1,0-1.112h4.415a.556.556,0,1,1,0,1.112Z" fill="#133854" stroke="#133854" stroke-width="1"/>
          </g>
          <g id="Groupe_200" data-name="Groupe 200">
            <path id="Tracé_406" data-name="Tracé 406" d="M1056.448,230.128h-21.4a.556.556,0,1,1,0-1.112h21.4a.556.556,0,1,1,0,1.112Z" fill="#133854" stroke="#133854" stroke-width="1"/>
          </g>
          <g id="Groupe_201" data-name="Groupe 201">
            <path id="Tracé_407" data-name="Tracé 407" d="M1069.985,230.128h-4.415a.556.556,0,0,1,0-1.112h4.415a.556.556,0,1,1,0,1.112Z" fill="#133854" stroke="#133854" stroke-width="1"/>
          </g>
          <g id="Groupe_202" data-name="Groupe 202">
            <path id="Tracé_408" data-name="Tracé 408" d="M1062.317,230.128h-3.081a.556.556,0,0,1,0-1.112h3.081a.556.556,0,1,1,0,1.112Z" fill="#133854" stroke="#133854" stroke-width="1"/>
          </g>
          <g id="Groupe_203" data-name="Groupe 203">
            <path id="Tracé_409" data-name="Tracé 409" d="M1069.985,234.086h-21.394a.556.556,0,0,1,0-1.112h21.394a.556.556,0,1,1,0,1.112Z" fill="#133854" stroke="#133854" stroke-width="1"/>
          </g>
          <g id="Groupe_204" data-name="Groupe 204">
            <path id="Tracé_410" data-name="Tracé 410" d="M1039.466,234.086h-4.415a.556.556,0,1,1,0-1.112h4.415a.556.556,0,1,1,0,1.112Z" fill="#133854" stroke="#133854" stroke-width="1"/>
          </g>
          <g id="Groupe_205" data-name="Groupe 205">
            <path id="Tracé_411" data-name="Tracé 411" d="M1045.8,234.086h-3.074a.556.556,0,1,1,0-1.112h3.074a.556.556,0,1,1,0,1.112Z" fill="#133854" stroke="#133854" stroke-width="1"/>
          </g>
          <g id="Groupe_206" data-name="Groupe 206">
            <path id="Tracé_412" data-name="Tracé 412" d="M1069.985,238.382h-26.776a.556.556,0,1,1,0-1.112h26.776a.556.556,0,1,1,0,1.112Z" fill="#133854" stroke="#133854" stroke-width="1"/>
          </g>
          <g id="Groupe_207" data-name="Groupe 207">
            <path id="Tracé_413" data-name="Tracé 413" d="M1039.466,238.382h-4.415a.556.556,0,1,1,0-1.112h4.415a.556.556,0,1,1,0,1.112Z" fill="#133854" stroke="#133854" stroke-width="1"/>
          </g>
          <g id="Groupe_208" data-name="Groupe 208">
            <path id="Tracé_414" data-name="Tracé 414" d="M1056.448,242.59h-21.389a.555.555,0,0,1,0-1.111h21.389a.555.555,0,1,1,0,1.111Z" fill="#133854" stroke="#133854" stroke-width="1"/>
          </g>
          <g id="Groupe_209" data-name="Groupe 209">
            <path id="Tracé_415" data-name="Tracé 415" d="M1069.985,242.59h-4.415a.555.555,0,1,1,0-1.111h4.415a.555.555,0,1,1,0,1.111Z" fill="#133854" stroke="#133854" stroke-width="1"/>
          </g>
          <g id="Groupe_210" data-name="Groupe 210">
            <path id="Tracé_416" data-name="Tracé 416" d="M1062.317,242.59h-3.081a.555.555,0,1,1,0-1.111h3.081a.555.555,0,1,1,0,1.111Z" fill="#133854" stroke="#133854" stroke-width="1"/>
          </g>
        </g>
      </g>
      <g id="Groupe_224" data-name="Groupe 224">
        <g id="Groupe_223" data-name="Groupe 223">
          <g id="Groupe_213" data-name="Groupe 213">
            <path id="Tracé_417" data-name="Tracé 417" d="M1032.394,207.626V182.738a.555.555,0,0,1,.555-.555h66.495a.555.555,0,0,1,.556.555v49.671a.555.555,0,0,1-.556.555h-13.013a.556.556,0,1,1,0-1.111h12.457V183.294h-65.383V207.07" fill="#133854" stroke="#133854" stroke-width="1"/>
          </g>
          <g id="Groupe_214" data-name="Groupe 214">
            <path id="Tracé_418" data-name="Tracé 418" d="M1098.987,194.276h-39.978a.555.555,0,0,1-.3-.089l-4.844-3.121h-20.348a.556.556,0,0,1,0-1.112h20.511a.555.555,0,0,1,.3.089l4.845,3.121h39.814a.556.556,0,0,1,0,1.112Z" fill="#133854" stroke="#133854" stroke-width="1"/>
          </g>
          <g id="Groupe_215" data-name="Groupe 215">
            <path id="Tracé_419" data-name="Tracé 419" d="M1089.125,189.113h-2.2a.556.556,0,1,1,0-1.112h2.2a.556.556,0,1,1,0,1.112Z" fill="#133854" stroke="#133854" stroke-width="1"/>
          </g>
          <g id="Groupe_216" data-name="Groupe 216">
            <path id="Tracé_420" data-name="Tracé 420" d="M1092.809,189.113h-2.2a.556.556,0,1,1,0-1.112h2.2a.556.556,0,0,1,0,1.112Z" fill="#133854" stroke="#133854" stroke-width="1"/>
          </g>
          <g id="Groupe_217" data-name="Groupe 217">
            <path id="Tracé_421" data-name="Tracé 421" d="M1096.491,189.113H1094.3a.556.556,0,1,1,0-1.112h2.193a.556.556,0,1,1,0,1.112Z" fill="#133854" stroke="#133854" stroke-width="1"/>
          </g>
          <g id="Groupe_218" data-name="Groupe 218">
            <path id="Tracé_422" data-name="Tracé 422" d="M1075.88,200.981h-27.156a.556.556,0,0,1,0-1.112h27.156a.556.556,0,0,1,0,1.112Z" fill="#133854" stroke="#133854" stroke-width="1"/>
          </g>
          <g id="Groupe_219" data-name="Groupe 219">
            <path id="Tracé_423" data-name="Tracé 423" d="M1083.659,200.981h-4.416a.556.556,0,1,1,0-1.112h4.416a.556.556,0,0,1,0,1.112Z" fill="#133854" stroke="#133854" stroke-width="1"/>
          </g>
          <g id="Groupe_220" data-name="Groupe 220">
            <path id="Tracé_424" data-name="Tracé 424" d="M1070.121,205.345h-21.4a.556.556,0,0,1,0-1.112h21.4a.556.556,0,1,1,0,1.112Z" fill="#133854" stroke="#133854" stroke-width="1"/>
          </g>
          <g id="Groupe_221" data-name="Groupe 221">
            <path id="Tracé_425" data-name="Tracé 425" d="M1083.659,205.345h-4.416a.556.556,0,1,1,0-1.112h4.416a.556.556,0,0,1,0,1.112Z" fill="#133854" stroke="#133854" stroke-width="1"/>
          </g>
          <g id="Groupe_222" data-name="Groupe 222">
            <path id="Tracé_426" data-name="Tracé 426" d="M1075.991,205.345h-3.082a.556.556,0,0,1,0-1.112h3.082a.556.556,0,1,1,0,1.112Z" fill="#133854" stroke="#133854" stroke-width="1"/>
          </g>
        </g>
      </g>
    </g>
  </g>
</svg>
