<svg xmlns="http://www.w3.org/2000/svg" width="28.596" height="32.321" viewBox="0 0 28.596 32.321">
  <path id="_3d" data-name="3d" d="M4.85,26.905,16.9,33.861a2.256,2.256,0,0,0,2.25,0L31.2,26.905a2.257,2.257,0,0,0,1.125-1.949V11.044A2.256,2.256,0,0,0,31.2,9.095L19.148,2.14a2.256,2.256,0,0,0-2.25,0L4.85,9.1a2.256,2.256,0,0,0-1.125,1.949V24.956A2.256,2.256,0,0,0,4.85,26.905Zm14.3-22.167,10.923,6.306V23.516L19.148,17.342ZM18.019,19.289l11.05,6.246L18.023,31.912,6.973,25.533ZM5.975,11.044,16.9,4.738v12.6L5.975,23.512Z" transform="translate(-3.725 -1.84)" fill="#133854"/>
</svg>
