<svg xmlns="http://www.w3.org/2000/svg" width="27.004" height="29.253" viewBox="0 0 27.004 29.253">
  <g id="arrow-left-right" transform="translate(-4.499 -3.373)">
    <path id="Tracé_650" data-name="Tracé 650" d="M22.829,17.2a1.125,1.125,0,0,1,1.593,0l6.75,6.75a1.125,1.125,0,0,1,0,1.593l-6.75,6.75A1.126,1.126,0,1,1,22.829,30.7l5.955-5.953L22.828,18.8a1.125,1.125,0,0,1,0-1.593Z" fill="#133854" fill-rule="evenodd"/>
    <path id="Tracé_651" data-name="Tracé 651" d="M4.5,24.75a1.125,1.125,0,0,1,1.125-1.125H29.25a1.125,1.125,0,0,1,0,2.25H5.625A1.125,1.125,0,0,1,4.5,24.75ZM13.171,3.7a1.125,1.125,0,0,1,0,1.593L7.216,11.25,13.172,17.2A1.126,1.126,0,1,1,11.579,18.8l-6.75-6.75a1.125,1.125,0,0,1,0-1.593l6.75-6.75a1.125,1.125,0,0,1,1.593,0Z" fill="#133854" fill-rule="evenodd"/>
    <path id="Tracé_652" data-name="Tracé 652" d="M5.625,11.25A1.125,1.125,0,0,1,6.75,10.125H30.375a1.125,1.125,0,0,1,0,2.25H6.75A1.125,1.125,0,0,1,5.625,11.25Z" fill="#133854" fill-rule="evenodd"/>
  </g>
</svg>
