<svg xmlns="http://www.w3.org/2000/svg" width="36.003" height="27.006" viewBox="0 0 36.003 27.006">
  <g id="arrow-repeat" transform="translate(0.002 -4.497)">
    <path id="Tracé_639" data-name="Tracé 639" d="M6.421,16.078a1.125,1.125,0,0,0-1.593,0l-4.5,4.5a1.126,1.126,0,1,0,1.593,1.593l3.7-3.7,3.7,3.706a1.126,1.126,0,1,0,1.593-1.593l-4.5-4.5Zm29.25-2.25a1.125,1.125,0,0,0-1.593,0l-3.7,3.706-3.7-3.706a1.126,1.126,0,1,0-1.593,1.593l4.5,4.5a1.125,1.125,0,0,0,1.593,0l4.5-4.5a1.125,1.125,0,0,0,0-1.593Z" fill="#133854" fill-rule="evenodd"/>
    <path id="Tracé_640" data-name="Tracé 640" d="M18,6.75a11.239,11.239,0,0,0-9.432,5.114,1.125,1.125,0,0,1-1.883-1.229A13.5,13.5,0,0,1,31.5,18a1.126,1.126,0,0,1-2.252,0A11.25,11.25,0,0,0,18,6.75ZM5.625,16.875A1.125,1.125,0,0,1,6.75,18a11.25,11.25,0,0,0,20.682,6.136,1.125,1.125,0,1,1,1.883,1.229A13.5,13.5,0,0,1,4.5,18a1.125,1.125,0,0,1,1.127-1.125Z" fill="#133854" fill-rule="evenodd"/>
  </g>
</svg>
