<svg id="arrow-right-short" xmlns="http://www.w3.org/2000/svg" width="11.713" height="10.249" viewBox="0 0 11.713 10.249">
  <path id="Tracé_637" data-name="Tracé 637" d="M18.214,10.339a.732.732,0,0,1,1.036,0l4.392,4.392a.732.732,0,0,1,0,1.036L19.25,20.158a.733.733,0,1,1-1.036-1.036l3.874-3.874-3.874-3.874a.732.732,0,0,1,0-1.036Z" transform="translate(-12.144 -10.123)" fill="#133854" fill-rule="evenodd"/>
  <path id="Tracé_638" data-name="Tracé 638" d="M9,17.607a.732.732,0,0,1,.732-.732h9.515a.732.732,0,0,1,0,1.464H9.732A.732.732,0,0,1,9,17.607Z" transform="translate(-9 -12.482)" fill="#133854" fill-rule="evenodd"/>
</svg>
