<svg xmlns="http://www.w3.org/2000/svg" width="36" height="29.501" viewBox="0 0 36 29.501">
  <g id="book" transform="translate(0 -2)">
    <path id="Tracé_674" data-name="Tracé 674" d="M7.231,2.412c3.6-.72,8.33-.815,11.565,2.417a1.125,1.125,0,0,1,.329.8v24.75a1.125,1.125,0,0,1-1.921.8c-1.9-1.9-4.759-2.383-7.808-2.07A24.155,24.155,0,0,0,1.629,31.38a1.125,1.125,0,0,1-1.629-1V5.625A1.125,1.125,0,0,1,.621,4.619l.5,1.006-.5-1.006,0,0,.009-.005L.664,4.6q.245-.122.5-.232A29.155,29.155,0,0,1,7.234,2.412ZM2.25,6.345V28.638a26.048,26.048,0,0,1,6.916-1.773,13.058,13.058,0,0,1,7.709,1.26V6.115c-2.392-2.09-5.92-2.151-9.2-1.494A26.9,26.9,0,0,0,2.25,6.345Z" fill="#133854" fill-rule="evenodd"/>
    <path id="Tracé_675" data-name="Tracé 675" d="M28.768,2.412C25.173,1.692,20.439,1.6,17.2,4.829a1.125,1.125,0,0,0-.328.8v24.75a1.125,1.125,0,0,0,1.921.8c1.9-1.9,4.759-2.383,7.808-2.07a24.155,24.155,0,0,1,7.767,2.279,1.125,1.125,0,0,0,1.629-1V5.625a1.125,1.125,0,0,0-.621-1.006l-.5,1.006.5-1.006-.005,0-.009-.005L35.336,4.6l-.106-.052q-.886-.413-1.8-.765a29.16,29.16,0,0,0-4.664-1.37ZM33.75,6.345V28.638a26.048,26.048,0,0,0-6.916-1.773,13.058,13.058,0,0,0-7.709,1.26V6.115c2.392-2.09,5.92-2.151,9.2-1.494A26.9,26.9,0,0,1,33.75,6.345Z" fill="#133854" fill-rule="evenodd"/>
  </g>
</svg>
