<svg xmlns="http://www.w3.org/2000/svg" width="36" height="27" viewBox="0 0 36 27">
  <g id="card-text" transform="translate(0 -4.5)">
    <path id="Tracé_655" data-name="Tracé 655" d="M32.625,6.75H3.375A1.125,1.125,0,0,0,2.25,7.875v20.25A1.125,1.125,0,0,0,3.375,29.25h29.25a1.125,1.125,0,0,0,1.125-1.125V7.875A1.125,1.125,0,0,0,32.625,6.75ZM3.375,4.5A3.375,3.375,0,0,0,0,7.875v20.25A3.375,3.375,0,0,0,3.375,31.5h29.25A3.375,3.375,0,0,0,36,28.125V7.875A3.375,3.375,0,0,0,32.625,4.5Z" fill="#133854" fill-rule="evenodd"/>
    <path id="Tracé_656" data-name="Tracé 656" d="M6.75,12.375A1.125,1.125,0,0,1,7.875,11.25h20.25a1.125,1.125,0,0,1,0,2.25H7.875A1.125,1.125,0,0,1,6.75,12.375ZM6.75,18a1.125,1.125,0,0,1,1.125-1.125h20.25a1.125,1.125,0,0,1,0,2.25H7.875A1.125,1.125,0,0,1,6.75,18Zm0,5.625A1.125,1.125,0,0,1,7.875,22.5h13.5a1.125,1.125,0,0,1,0,2.25H7.875A1.125,1.125,0,0,1,6.75,23.625Z" fill="#133854" fill-rule="evenodd"/>
  </g>
</svg>
