<svg xmlns="http://www.w3.org/2000/svg" width="14" height="10.5" viewBox="0 0 14 10.5">
  <g id="card-list" transform="translate(0 -4.5)">
    <path id="Tracé_36" data-name="Tracé 36" d="M12.688,5.375H1.312a.437.437,0,0,0-.437.438v7.875a.438.438,0,0,0,.437.438H12.688a.438.438,0,0,0,.438-.438V5.812A.437.437,0,0,0,12.688,5.375ZM1.312,4.5A1.313,1.313,0,0,0,0,5.812v7.875A1.313,1.313,0,0,0,1.312,15H12.688A1.313,1.313,0,0,0,14,13.687V5.812A1.313,1.313,0,0,0,12.688,4.5Z" transform="translate(0 0)" fill="#19496e" fill-rule="evenodd"/>
    <path id="Tracé_37" data-name="Tracé 37" d="M11.25,13.875a.437.437,0,0,1,.438-.437h6.125a.438.438,0,0,1,0,.875H11.688A.437.437,0,0,1,11.25,13.875Zm0-2.187a.437.437,0,0,1,.438-.437h6.125a.437.437,0,1,1,0,.875H11.688A.437.437,0,0,1,11.25,11.688Zm0,4.375a.437.437,0,0,1,.438-.437h6.125a.437.437,0,1,1,0,.875H11.688A.438.438,0,0,1,11.25,16.063Z" transform="translate(-6.875 -4.125)" fill="#19496e" fill-rule="evenodd"/>
    <path id="Tracé_38" data-name="Tracé 38" d="M7.625,11.688a.438.438,0,1,1-.438-.437A.437.437,0,0,1,7.625,11.688Z" transform="translate(-4.125 -4.125)" fill="#19496e"/>
    <path id="Tracé_39" data-name="Tracé 39" d="M7.625,17.312a.438.438,0,1,1-.438-.437A.438.438,0,0,1,7.625,17.312Z" transform="translate(-4.125 -7.562)" fill="#19496e"/>
    <path id="Tracé_40" data-name="Tracé 40" d="M7.625,22.937a.438.438,0,1,1-.438-.437A.438.438,0,0,1,7.625,22.937Z" transform="translate(-4.125 -11)" fill="#19496e"/>
  </g>
</svg>
