<svg id="check-circle" xmlns="http://www.w3.org/2000/svg" width="18.002" height="18.002" viewBox="0 0 18.002 18.002">
  <path id="Tracé_20" data-name="Tracé 20" d="M9,16.877A7.876,7.876,0,1,0,1.125,9,7.876,7.876,0,0,0,9,16.877ZM9,18A9,9,0,1,0,0,9,9,9,0,0,0,9,18Z" fill="#fe5002" fill-rule="evenodd"/>
  <path id="Tracé_21" data-name="Tracé 21" d="M19.3,11.013A1.085,1.085,0,0,1,20.853,11a1.141,1.141,0,0,1,.015,1.59l-5.861,7.48a1.086,1.086,0,0,1-1.586.03L9.539,16.131a1.14,1.14,0,0,1-.323-1.1,1.113,1.113,0,0,1,.8-.815,1.087,1.087,0,0,1,1.081.33l3.074,3.137,5.1-6.633a.351.351,0,0,1,.029-.033Z" transform="translate(-6.239 -6.416)" fill="#fe5002" fill-rule="evenodd"/>
</svg>
