<svg xmlns="http://www.w3.org/2000/svg" width="27" height="29.025" viewBox="0 0 27 29.025">
  <g id="connection-signal" transform="translate(-4.5 -4.725)">
    <path id="Tracé_645" data-name="Tracé 645" d="M16.875,13.5h2.25V33.75h-2.25Z" fill="#133854"/>
    <path id="Tracé_646" data-name="Tracé 646" d="M12.746,20.5a7.875,7.875,0,0,1,0-11.745l1.508,1.676a5.625,5.625,0,0,0,0,8.393Z" fill="#133854"/>
    <path id="Tracé_647" data-name="Tracé 647" d="M23.254,20.5l-1.508-1.676a5.625,5.625,0,0,0,0-8.393l1.508-1.676a7.875,7.875,0,0,1,0,11.745Z" fill="#133854"/>
    <path id="Tracé_648" data-name="Tracé 648" d="M9.45,24.525a12.375,12.375,0,0,1,0-19.8l1.35,1.8a10.125,10.125,0,0,0,0,16.2Z" fill="#133854"/>
    <path id="Tracé_649" data-name="Tracé 649" d="M26.55,24.525l-1.35-1.8a10.125,10.125,0,0,0,0-16.2l1.35-1.8a12.375,12.375,0,0,1,0,19.8Z" fill="#133854"/>
  </g>
</svg>
