<svg xmlns="http://www.w3.org/2000/svg" width="29.249" height="29.251" viewBox="0 0 29.249 29.251">
  <g id="create-outline" transform="translate(-3.375 -3.375)">
    <path id="Tracé_688" data-name="Tracé 688" d="M27,15.75V28.688A2.813,2.813,0,0,1,24.187,31.5H7.313A2.813,2.813,0,0,1,4.5,28.688V11.813A2.813,2.813,0,0,1,7.313,9H19.089" fill="none" stroke="#133854" stroke-linecap="round" stroke-linejoin="round" stroke-width="2.25"/>
    <path id="Tracé_689" data-name="Tracé 689" d="M32.34,3.744a1.129,1.129,0,0,0-1.633-.039l-.87.865a.563.563,0,0,0,0,.8l.8.8a.563.563,0,0,0,.8,0l.848-.844a1.144,1.144,0,0,0,.06-1.574Z" fill="#133854"/>
    <path id="Tracé_690" data-name="Tracé 690" d="M28.079,6.328,15.386,19a.633.633,0,0,0-.162.276l-.588,1.749a.275.275,0,0,0,.342.342l1.747-.587A.633.633,0,0,0,17,20.616l12.671-12.7a.633.633,0,0,0,0-.89l-.7-.7a.633.633,0,0,0-.894,0Z" fill="#133854"/>
  </g>
</svg>
