<svg xmlns="http://www.w3.org/2000/svg" width="29.25" height="29.25" viewBox="0 0 29.25 29.25">
  <g id="data-1" transform="translate(-3.375 -3.375)">
    <path id="Tracé_678" data-name="Tracé 678" d="M16.875,6.75H31.5V9H16.875Z" fill="#133854"/>
    <path id="Tracé_679" data-name="Tracé 679" d="M16.875,27H31.5v2.25H16.875Z" fill="#133854"/>
    <path id="Tracé_680" data-name="Tracé 680" d="M4.5,16.875H19.125v2.25H4.5Z" fill="#133854"/>
    <path id="Tracé_681" data-name="Tracé 681" d="M7.875,12.375a4.5,4.5,0,1,1,4.5-4.5A4.5,4.5,0,0,1,7.875,12.375Zm0-6.75a2.25,2.25,0,1,0,2.25,2.25A2.25,2.25,0,0,0,7.875,5.625Z" fill="#133854"/>
    <path id="Tracé_682" data-name="Tracé 682" d="M7.875,32.625a4.5,4.5,0,1,1,4.5-4.5A4.5,4.5,0,0,1,7.875,32.625Zm0-6.75a2.25,2.25,0,1,0,2.25,2.25A2.25,2.25,0,0,0,7.875,25.875Z" fill="#133854"/>
    <path id="Tracé_683" data-name="Tracé 683" d="M28.125,22.5a4.5,4.5,0,1,1,4.5-4.5A4.5,4.5,0,0,1,28.125,22.5Zm0-6.75A2.25,2.25,0,1,0,30.375,18,2.25,2.25,0,0,0,28.125,15.75Z" fill="#133854"/>
  </g>
</svg>
