<svg xmlns="http://www.w3.org/2000/svg" width="27" height="27" viewBox="0 0 27 27">
  <g id="grid" transform="translate(-4.5 -4.5)">
    <path id="Tracé_641" data-name="Tracé 641" d="M13.5,4.5H6.75A2.25,2.25,0,0,0,4.5,6.75V13.5a2.25,2.25,0,0,0,2.25,2.25H13.5a2.25,2.25,0,0,0,2.25-2.25V6.75A2.25,2.25,0,0,0,13.5,4.5Zm0,9H6.75V6.75H13.5Z" fill="#133854"/>
    <path id="Tracé_642" data-name="Tracé 642" d="M29.25,4.5H22.5a2.25,2.25,0,0,0-2.25,2.25V13.5a2.25,2.25,0,0,0,2.25,2.25h6.75A2.25,2.25,0,0,0,31.5,13.5V6.75A2.25,2.25,0,0,0,29.25,4.5Zm0,9H22.5V6.75h6.75Z" fill="#133854"/>
    <path id="Tracé_643" data-name="Tracé 643" d="M13.5,20.25H6.75A2.25,2.25,0,0,0,4.5,22.5v6.75A2.25,2.25,0,0,0,6.75,31.5H13.5a2.25,2.25,0,0,0,2.25-2.25V22.5A2.25,2.25,0,0,0,13.5,20.25Zm0,9H6.75V22.5H13.5Z" fill="#133854"/>
    <path id="Tracé_644" data-name="Tracé 644" d="M29.25,20.25H22.5a2.25,2.25,0,0,0-2.25,2.25v6.75A2.25,2.25,0,0,0,22.5,31.5h6.75a2.25,2.25,0,0,0,2.25-2.25V22.5A2.25,2.25,0,0,0,29.25,20.25Zm0,9H22.5V22.5h6.75Z" fill="#133854"/>
  </g>
</svg>
