<svg xmlns="http://www.w3.org/2000/svg" width="37.711" height="28.888" viewBox="0 0 37.711 28.888">
  <g id="computer-line" transform="translate(-1.111 -5.556)">
    <path id="Tracé_17" data-name="Tracé 17" d="M10.667,25.422V11.778H27.111L28.867,10H8.889V25.422Z" fill="#f5f5f5"/>
    <path id="Tracé_18" data-name="Tracé 18" d="M6.667,7.778H33.334V25.556h2.222V7.222a1.667,1.667,0,0,0-1.667-1.666H6.111A1.667,1.667,0,0,0,4.444,7.222V25.556H6.666Z" fill="#f5f5f5"/>
    <path id="Tracé_19" data-name="Tracé 19" d="M1.111,27.778v3.778A2.889,2.889,0,0,0,4,34.444H35.933a2.889,2.889,0,0,0,2.889-2.889V27.778Zm35.556,3.778a.667.667,0,0,1-.667.667H3.956a.667.667,0,0,1-.667-.667V29.478H14.345a1.822,1.822,0,0,0,1.667,1.111h7.922A1.822,1.822,0,0,0,25.6,29.478H36.667Z" fill="#f5f5f5"/>
  </g>
</svg>
