<svg xmlns="http://www.w3.org/2000/svg" width="30.084" height="30.845" viewBox="0 0 30.084 30.845">
  <path id="__TEMP__SVG__" d="M10.309,4.592a5.5,5.5,0,0,0-5.1,4.019c-.428,1.6-.165,3.3-.238,4.943v2.817H6.939c.036-2.248-.074-4.5.059-6.747a3.553,3.553,0,0,1,3.6-3.082h8.633V4.586c-2.975,0-5.95-.019-8.924,0ZM22.93,6.542h1.85V4.586H22.93Zm5.547,0A4.225,4.225,0,0,1,31.95,7.559a4.709,4.709,0,0,1,1.081,3.77v6.084h2c-.03-2.58.06-5.166-.045-7.742a5.563,5.563,0,0,0-5.027-5.046c-.492-.062-.99-.019-1.485-.032v1.95ZM4.971,22.235H6.938V20.282H4.971Zm28.06,1.044h2V21.322h-2Zm-28.06,6.5a5.813,5.813,0,0,0,3.193,5.09c1.666.822,3.548.432,5.322.523.414-.108,1.244.223,1.383-.176v-1.78c-1.723-.042-3.454.091-5.171-.079a3.69,3.69,0,0,1-2.76-3.705V26.143H4.971v3.64Zm28.06-.066a3.61,3.61,0,0,1-3.26,3.7c-1.883.059-3.772.019-5.657.025V35.4c2.041-.04,4.089.077,6.125-.06A5.593,5.593,0,0,0,35,30.211c.077-1,.014-2.01.034-3.014h-2v2.52ZM18.566,35.4h1.85V33.445h-1.85Z" transform="translate(-4.958 -4.578)" fill="#f5f5f5"/>
</svg>
