<svg xmlns="http://www.w3.org/2000/svg" width="27.668" height="27.692" viewBox="0 0 27.668 27.692">
  <path id="flow" d="M27.2,22.4V17.318a1.976,1.976,0,0,0-1.976-1.976h-7.9V10.263a3.952,3.952,0,1,0-1.976,0v5.079H7.44a1.976,1.976,0,0,0-1.976,1.976V22.4a3.952,3.952,0,1,0,1.976,0V17.318H25.226V22.4a3.952,3.952,0,1,0,1.976,0ZM8.429,26.211a1.976,1.976,0,1,1-1.976-1.976A1.976,1.976,0,0,1,8.429,26.211ZM14.357,6.449a1.976,1.976,0,1,1,1.976,1.976A1.976,1.976,0,0,1,14.357,6.449ZM26.215,28.187a1.976,1.976,0,1,1,1.976-1.976A1.976,1.976,0,0,1,26.215,28.187Z" transform="translate(-2.5 -2.484)" fill="#f5f5f5"/>
</svg>
