<svg xmlns="http://www.w3.org/2000/svg" width="24" height="24" viewBox="0 0 24 24">
  <path id="phone-handset-line" d="M19.571,25.653a3.209,3.209,0,0,1-.695-.078A23.388,23.388,0,0,1,7.332,19.36,23.384,23.384,0,0,1,1.08,7.817a3.3,3.3,0,0,1,.938-3.04L4.8,2.042a1.371,1.371,0,0,1,1.07-.384,1.385,1.385,0,0,1,1.007.618l3.473,5.249a1.157,1.157,0,0,1-.076,1.35L8.526,11.006a13.456,13.456,0,0,0,2.9,4.184A13.365,13.365,0,0,0,15.639,18.1l2.16-1.755a1.119,1.119,0,0,1,1.292-.085l5.244,3.466A1.423,1.423,0,0,1,25,20.756a1.441,1.441,0,0,1-.38,1.175l-2.709,2.742a3.255,3.255,0,0,1-2.341.98ZM5.755,3.064,2.977,5.8a1.83,1.83,0,0,0-.521,1.7A21.95,21.95,0,0,0,8.3,18.344,22,22,0,0,0,19.161,24.19a1.882,1.882,0,0,0,1.737-.526l2.709-2.742-5.064-3.346-2.32,1.889a.682.682,0,0,1-.639.121,13.9,13.9,0,0,1-5.112-3.374A13.864,13.864,0,0,1,7.089,11.1a.722.722,0,0,1,.167-.675L9.131,8.129Z" transform="translate(-1.013 -1.653)" fill="#fe5002"/>
</svg>
