<svg xmlns="http://www.w3.org/2000/svg" width="31.5" height="31.5" viewBox="0 0 31.5 31.5">
  <path id="pinpoint" d="M18,2.25A15.75,15.75,0,1,0,33.75,18,15.751,15.751,0,0,0,18,2.25Zm9.548,25.3a13.4,13.4,0,0,1-8.423,3.909L18.562,27H17.437l-.555,4.451A13.507,13.507,0,0,1,4.55,19.118L9,18.563V17.438l-4.451-.555A13.507,13.507,0,0,1,16.881,4.551L17.438,9h1.125l.555-4.451A13.507,13.507,0,0,1,31.45,16.881L27,17.438v1.125l4.451.555a13.433,13.433,0,0,1-3.9,8.43Z" transform="translate(-2.25 -2.25)" fill="#133854"/>
</svg>
