<svg xmlns="http://www.w3.org/2000/svg" width="31.502" height="31.5" viewBox="0 0 31.502 31.5">
  <g id="rocket" transform="translate(-2.248 -2.25)">
    <path id="Tracé_27" data-name="Tracé 27" d="M8.2,26.2l9-9L18.788,18.8l-9,9Z" fill="#133854"/>
    <path id="Tracé_28" data-name="Tracé 28" d="M19.125,33.75a1.122,1.122,0,0,1-1.114-.968l-1.125-7.875,2.25-.315.844,5.929,3.645-2.936v-8.46a1.125,1.125,0,0,1,.326-.8l4.579-4.579A10.057,10.057,0,0,0,31.5,6.593V4.5H29.407a10.057,10.057,0,0,0-7.155,2.97l-4.579,4.579a1.125,1.125,0,0,1-.8.326H8.415L5.479,16.042l5.929.844-.315,2.25L3.218,18.011a1.127,1.127,0,0,1-.72-1.823L7,10.563a1.125,1.125,0,0,1,.877-.438h8.539l4.241-4.252A12.285,12.285,0,0,1,29.407,2.25H31.5A2.25,2.25,0,0,1,33.75,4.5V6.593a12.285,12.285,0,0,1-3.623,8.752l-4.252,4.241v8.539a1.125,1.125,0,0,1-.427.878l-5.625,4.5A1.125,1.125,0,0,1,19.125,33.75Z" fill="#133854"/>
  </g>
</svg>
