<svg xmlns="http://www.w3.org/2000/svg" width="27" height="27" viewBox="0 0 27 27">
  <path id="save" d="M31.174,10.451,25.549,4.826a1.125,1.125,0,0,0-.8-.326h-18A2.25,2.25,0,0,0,4.5,6.75v22.5A2.25,2.25,0,0,0,6.75,31.5h22.5a2.25,2.25,0,0,0,2.25-2.25v-18A1.125,1.125,0,0,0,31.174,10.451ZM13.5,6.75h9v4.5h-9Zm9,22.5h-9v-9h9Zm2.25,0v-9A2.25,2.25,0,0,0,22.5,18h-9a2.25,2.25,0,0,0-2.25,2.25v9H6.75V6.75h4.5v4.5A2.25,2.25,0,0,0,13.5,13.5h9a2.25,2.25,0,0,0,2.25-2.25V7.211l4.5,4.5V29.25Z" transform="translate(-4.5 -4.5)" fill="#133854"/>
</svg>
