<svg xmlns="http://www.w3.org/2000/svg" width="27" height="31.5" viewBox="0 0 27 31.5">
  <g id="security" transform="translate(-4.5 -2.25)">
    <path id="Tracé_657" data-name="Tracé 657" d="M15.75,18.664,12.836,15.75,11.25,17.336l4.5,4.5,9-9L23.164,11.25Z" fill="#133854"/>
    <path id="Tracé_658" data-name="Tracé 658" d="M18,33.75l-6.948-3.7A12.355,12.355,0,0,1,4.5,19.125V4.5A2.252,2.252,0,0,1,6.75,2.25h22.5A2.252,2.252,0,0,1,31.5,4.5V19.125a12.355,12.355,0,0,1-6.552,10.92ZM6.75,4.5V19.125a10.108,10.108,0,0,0,5.362,8.935L18,31.2l5.888-3.139a10.108,10.108,0,0,0,5.362-8.936V4.5Z" fill="#133854"/>
  </g>
</svg>
