<svg xmlns="http://www.w3.org/2000/svg" width="24" height="30" viewBox="0 0 24 30">
  <g id="server" transform="translate(-6 -3)">
    <path id="Tracé_661" data-name="Tracé 661" d="M13.5,9a1.5,1.5,0,0,0,0,3h9a1.5,1.5,0,0,0,0-3Z" fill="#133854"/>
    <path id="Tracé_662" data-name="Tracé 662" d="M13.5,15a1.5,1.5,0,0,0,0,3h9a1.5,1.5,0,0,0,0-3Z" fill="#133854"/>
    <path id="Tracé_663" data-name="Tracé 663" d="M19.5,25.5A1.5,1.5,0,1,1,18,24,1.5,1.5,0,0,1,19.5,25.5Z" fill="#133854"/>
    <path id="Tracé_664" data-name="Tracé 664" d="M6,7.5A4.5,4.5,0,0,1,10.5,3h15A4.5,4.5,0,0,1,30,7.5v21A4.5,4.5,0,0,1,25.5,33h-15A4.5,4.5,0,0,1,6,28.5ZM10.5,6h15A1.5,1.5,0,0,1,27,7.5v21A1.5,1.5,0,0,1,25.5,30h-15A1.5,1.5,0,0,1,9,28.5V7.5A1.5,1.5,0,0,1,10.5,6Z" fill="#133854" fill-rule="evenodd"/>
  </g>
</svg>
